<svg width="50" height="50" viewBox="0 0 50 50" fill="none" xmlns="http://www.w3.org/2000/svg">
    <rect x="0.5" y="0.5" width="49" height="49" rx="24.5" fill="#7587DB" stroke="none" />
    <path
        d="M21.1172 31.2812C23.7188 31.2812 25.625 29.7266 25.8906 27.4219H23.9062C23.6328 28.6875 22.5469 29.4844 21.1172 29.4844C19.1953 29.4844 18 27.9062 18 25.3594C18 22.8203 19.1953 21.2422 21.1094 21.2422C22.5312 21.2422 23.6172 22.1172 23.8984 23.4688H25.8828C25.6484 21.1172 23.6719 19.4453 21.1094 19.4453C17.9141 19.4453 15.9375 21.7031 15.9375 25.3672C15.9375 29.0156 17.9219 31.2812 21.1172 31.2812ZM35.3125 25.3281C35.1094 23.5312 33.7812 22.2812 31.5859 22.2812C29.0156 22.2812 27.5078 23.9297 27.5078 26.7031C27.5078 29.5156 29.0234 31.1719 31.5938 31.1719C33.7578 31.1719 35.1016 29.9688 35.3125 28.1797H33.4688C33.2656 29.0703 32.5938 29.5469 31.5859 29.5469C30.2656 29.5469 29.4688 28.5 29.4688 26.7031C29.4688 24.9297 30.2578 23.9062 31.5859 23.9062C32.6484 23.9062 33.2891 24.5 33.4688 25.3281H35.3125Z"
        fill="white" />
</svg>
    