<svg width="50" height="50" viewBox="0 0 50 50" fill="none" xmlns="http://www.w3.org/2000/svg">
    <rect x="0.5" y="0.5" width="49" height="49" rx="24.5" fill="#0052D9" stroke="none" />
    <path
        d="M23.9219 31H26.0859L22.0781 19.7266H19.8125L15.8125 31H17.8516L18.8203 28.1172H22.9688L23.9219 31ZM20.8359 21.875H20.9688L22.5 26.5234H19.2891L20.8359 21.875ZM30.6328 29.6172C29.7734 29.6172 29.1562 29.1875 29.1562 28.4688C29.1562 27.7734 29.6641 27.3828 30.75 27.3125L32.6797 27.1875V27.8672C32.6797 28.8594 31.8047 29.6172 30.6328 29.6172ZM30.0625 31.1406C31.1797 31.1406 32.1172 30.6562 32.5938 29.8281H32.7266V31H34.5938V25.1641C34.5938 23.3516 33.3594 22.2812 31.1641 22.2812C29.1328 22.2812 27.7188 23.2422 27.5625 24.75H29.3906C29.5703 24.1719 30.1797 23.8594 31.0703 23.8594C32.1172 23.8594 32.6797 24.3281 32.6797 25.1641V25.8828L30.4766 26.0156C28.3984 26.1406 27.2344 27.0312 27.2344 28.5781C27.2344 30.1406 28.4141 31.1406 30.0625 31.1406Z"
        fill="white" />
</svg>
    