<svg width="200" height="140" viewBox="0 0 200 140" fill="none" xmlns="http://www.w3.org/2000/svg">
  <g mask="url(#mask0_22_990)">
    <path fill-rule="evenodd" clip-rule="evenodd"
      d="M144.569 105.61L96.5692 133.322L48.5693 105.61V83.7121L96.569 55.9995L144.569 83.7122V105.61Z"
      fill="#97A3B7" />
    <g filter="url(#filter0_f_22_990)">
      <rect x="-3" y="33.9995" width="80" height="60" fill="#E3E6EB" />
    </g>
    <g filter="url(#filter1_f_22_990)">
      <rect x="97" y="97.9995" width="80" height="60" fill="#E3E6EB" />
    </g>
  </g>
  <mask id="mask1_22_990" style="mask-type:alpha" maskUnits="userSpaceOnUse" x="53" y="16" width="86" height="69">
    <path fill-rule="evenodd" clip-rule="evenodd"
      d="M113.357 42.715L129.829 33.2059C128.859 32.4995 127.789 31.823 126.643 31.1615C121.268 28.0584 114.723 26.0153 107.758 25.023C103.549 19.4606 97.5775 16.1248 90.4344 16.1945C83.6788 16.2821 74.9482 21.9412 68.9271 30.5602C68.096 30.975 67.2847 31.4099 66.4949 31.8659C52.1168 40.1664 49.5542 52.6155 59.0218 61.9309C57.9871 56.1259 58.712 51.0657 62.1231 45.7161C62.0653 46.3482 61.9127 50.143 61.8906 50.7834C61.2209 69.6969 76.9107 84.8409 88.03 84.7113C96.4806 84.6119 103.595 79.6976 108.349 72.0797C114.563 70.8487 120.438 68.786 125.443 65.8968C138.919 58.1167 142.01 46.7146 134.547 37.629L117.948 47.2113C119.71 50.8655 117.997 55.034 112.87 57.9936C107.744 60.9532 100.523 61.9424 94.1928 60.9252C91.3499 60.4563 88.6706 59.5834 86.4524 58.3029L86.4042 58.275L113.357 42.715ZM78.6546 53.7727C72.5285 49.7965 72.9717 43.5469 79.8498 39.5762C86.7276 35.6056 97.5532 35.3496 104.441 38.8864L78.6546 53.7727ZM93.5561 18.1703C98.1657 18.1302 102.284 20.5752 105.496 24.7401C97.0486 23.8219 88.1122 24.4143 79.9732 26.5054C83.672 21.3809 88.444 18.2301 93.5561 18.1703ZM91.3238 81.6169C85.471 81.685 80.3525 77.691 76.9473 71.2848C85.7921 73.6267 95.8719 74.0599 105.374 72.6022C101.618 78.1222 96.6601 81.5531 91.3238 81.6169Z"
      fill="currentcolor" />
  </mask>
  <g mask="url(#mask1_22_990)">
    <path fill-rule="evenodd" clip-rule="evenodd"
      d="M113.357 42.715L129.829 33.2059C128.859 32.4995 127.789 31.823 126.643 31.1615C121.268 28.0584 114.723 26.0153 107.758 25.023C103.549 19.4606 97.5775 16.1248 90.4344 16.1945C83.6788 16.2821 74.9482 21.9412 68.9271 30.5602C68.096 30.975 67.2847 31.4099 66.4949 31.8659C52.1168 40.1664 49.5542 52.6155 59.0218 61.9309C57.9871 56.1259 58.712 51.0657 62.1231 45.7161C62.0653 46.3482 61.9127 50.143 61.8906 50.7834C61.2209 69.6969 76.9107 84.8409 88.03 84.7113C96.4806 84.6119 103.595 79.6976 108.349 72.0797C114.563 70.8487 120.438 68.786 125.443 65.8968C138.919 58.1167 142.01 46.7146 134.547 37.629L117.948 47.2113C119.71 50.8655 117.997 55.034 112.87 57.9936C107.744 60.9532 100.523 61.9424 94.1928 60.9252C91.3499 60.4563 88.6706 59.5834 86.4524 58.3029L86.4042 58.275L113.357 42.715ZM78.6546 53.7727C72.5285 49.7965 72.9717 43.5469 79.8498 39.5762C86.7276 35.6056 97.5532 35.3496 104.441 38.8864L78.6546 53.7727ZM93.5561 18.1703C98.1657 18.1302 102.284 20.5752 105.496 24.7401C97.0486 23.8219 88.1122 24.4143 79.9732 26.5054C83.672 21.3809 88.444 18.2301 93.5561 18.1703ZM91.3238 81.6169C85.471 81.685 80.3525 77.691 76.9473 71.2848C85.7921 73.6267 95.8719 74.0599 105.374 72.6022C101.618 78.1222 96.6601 81.5531 91.3238 81.6169Z"
      fill="currentcolor" />
    <g opacity="0.3" filter="url(#filter2_f_22_990)">
      <path d="M96.569 55.9995L144.569 83.7122V139.138L96.569 166.85L48.5692 139.138V83.7122L96.569 55.9995Z"
        fill="#97A3B7" />
    </g>
  </g>
  <ellipse cx="155" cy="78" rx="22" ry="22" transform="rotate(180 155 78)" fill="white" stroke="black" />
  <path d="M155 83L155 65" stroke="black" />
  <rect x="155" y="87" width="0.00390625" height="0.00390625" fill="#C4C4C4" stroke="black" stroke-width="2"
    stroke-linejoin="round" />
  <path d="M96.5693 112L96.5693 87.9995" stroke="white" stroke-width="2" />
  <path d="M86.5693 97.9995L96.5693 87.9995L106.569 97.9995" stroke="white" stroke-width="2" />
</svg>