<svg width="64" height="64" viewBox="0 0 64 64" fill="none" xmlns="http://www.w3.org/2000/svg">
<path fill-rule="evenodd" clip-rule="evenodd" d="M31.9997 10.6904L58.2484 25.8451V48.1545L31.9997 63.3092L5.75098 48.1545V25.8451L31.9997 10.6904ZM9.75098 30.4639V45.8451L31.9997 58.6904L54.2484 45.8451V30.4639L31.9997 43.3092L9.75098 30.4639ZM52.2484 26.9998L40.6599 33.6904L31.9997 28.6904L23.3394 33.6904L11.751 26.9998L31.9997 15.3092L52.2484 26.9998ZM27.3394 35.9998L31.9997 38.6904L36.6599 35.9998L31.9997 33.3092L27.3394 35.9998Z" fill="currentcolor" fill-opacity="0.26"/>
<path fill-rule="evenodd" clip-rule="evenodd" d="M30 8V0H34V8H30Z" fill="currentcolor" fill-opacity="0.26"/>
<path fill-rule="evenodd" clip-rule="evenodd" d="M44.2676 10.7514L48.2676 3.82324L51.7317 5.82324L47.7317 12.7514L44.2676 10.7514Z" fill="currentcolor" fill-opacity="0.26"/>
<path fill-rule="evenodd" clip-rule="evenodd" d="M16.2676 12.7514L12.2676 5.82324L15.7317 3.82324L19.7317 10.7514L16.2676 12.7514Z" fill="currentcolor" fill-opacity="0.26"/>
</svg>
