<svg width="1em" height="1em" viewBox="0 0 188 26" fill="none" xmlns="http://www.w3.org/2000/svg">
<path d="M77.7301 8.34426H80.6699L78.3234 21.7922H75.3799L77.7301 8.34426Z" fill="currentcolor"/>
<path d="M78.5992 3.09961H81.6221L81.0742 6.12246H78.0513L78.5992 3.09961Z" fill="currentcolor"/>
<path d="M32.5765 6.46921H36.937L37.4131 3.82422H25.4615L24.9854 6.46921H29.3723L26.6706 21.7913H29.8559L32.5765 6.46921Z" fill="currentcolor"/>
<path fill-rule="evenodd" clip-rule="evenodd" d="M51.4051 11.4275C51.5998 10.4187 51.7035 9.39434 51.7149 8.3669C51.7149 4.97375 50.007 3.8364 45.4765 3.84774H39.2381L36.083 21.8035H43.3908C48.1329 21.8035 49.8181 20.5906 50.8836 14.4504L51.4051 11.4275ZM45.0004 6.47006C47.5623 6.47006 48.5372 6.80258 48.5372 8.83922C48.5177 9.70444 48.4254 10.5665 48.2613 11.4162L47.7399 14.4391C47.0522 18.4481 46.3191 19.1585 42.7597 19.1585H39.7369L41.9473 6.47006H45.0004Z" fill="currentcolor"/>
<path fill-rule="evenodd" clip-rule="evenodd" d="M63.863 10.8329C63.8629 11.1826 63.8313 11.5317 63.7685 11.8758L63.436 13.765C63.0582 15.8735 62.276 16.6103 60.3074 16.6103H55.0816L54.9607 17.3471C54.8956 17.6913 54.8564 18.0399 54.8436 18.39C54.8436 19.2175 55.2705 19.4102 56.6459 19.4102H61.4145L60.4396 21.8058H56.0754C52.9958 21.8058 51.9189 21.0199 51.9189 19.1004C51.9308 18.5439 51.9864 17.9893 52.0852 17.4416L53.011 12.1289C53.5777 8.85291 54.9531 8.19166 58.4407 8.19166H60.0542C62.5292 8.17654 63.863 8.83779 63.863 10.8329ZM60.9006 11.2599C60.9006 10.6893 60.5454 10.5457 59.4534 10.5457H57.7682C56.6762 10.5457 56.1547 10.6893 55.8789 12.1138L55.501 14.294H59.5327C59.6593 14.3151 59.7889 14.3081 59.9124 14.2735C60.036 14.239 60.1504 14.1778 60.2477 14.0942C60.345 14.0106 60.4228 13.9066 60.4755 13.7897C60.5283 13.6728 60.5547 13.5457 60.553 13.4174L60.8137 11.8758C60.8561 11.6728 60.8826 11.4669 60.893 11.2599H60.9006Z" fill="currentcolor"/>
<path d="M69.644 19.3964H64.0215L64.4485 21.8185H69.644C72.4477 21.8185 73.1543 21.486 73.5813 19.0186L73.842 17.5072C73.9744 16.8585 74.0527 16.2001 74.0762 15.5385C74.0762 14.1896 73.3885 13.7853 71.3028 13.7853H68.4575C67.9096 13.7853 67.7471 13.7361 67.7471 13.4301C67.754 13.2471 67.7768 13.065 67.8152 12.886L68.0079 11.8166C68.1741 10.8909 68.3366 10.7511 69.2624 10.7511H74.269L75.2627 8.35547H69.2624C66.5834 8.35547 65.873 8.6502 65.3969 11.3783L65.208 12.4477C65.073 13.0947 64.9933 13.752 64.9699 14.4125C64.9699 15.7652 65.6576 16.1695 67.7471 16.1695H70.4715C71.0194 16.1695 71.1856 16.2187 71.1856 16.5247C71.1769 16.7078 71.1529 16.8898 71.1139 17.0688L70.8985 18.3271C70.7322 19.2529 70.566 19.3964 69.644 19.3964Z" fill="currentcolor"/>
<path fill-rule="evenodd" clip-rule="evenodd" d="M93.2642 13.8225C93.4341 12.9856 93.5377 12.1366 93.5741 11.2833C93.5741 9.00486 92.3158 8.17735 89.3194 8.16602H87.6833C83.7196 8.16602 82.843 9.03509 82.1553 12.8137L81.8001 14.7823C81.6298 15.6192 81.5262 16.4682 81.4902 17.3215C81.4902 19.5962 82.7372 20.4275 85.76 20.4275H89.1607L88.9945 21.3532C88.6393 23.439 88.2841 23.5826 86.4326 23.5826H81.5469L81.9739 26.0008H87.0976C89.8258 26.0008 91.2238 25.3585 91.7944 22.1354L93.2642 13.8225ZM90.3132 13.7961L89.5877 18.0432L86.4931 18.0318C84.9287 18.0318 84.43 17.8429 84.43 16.8227C84.475 16.1366 84.5697 15.4547 84.7133 14.7823L85.0723 12.8137C85.3784 11.0944 85.6618 10.5465 87.4641 10.5465H88.5335C90.0751 10.5465 90.5966 10.7392 90.5966 11.7557C90.5573 12.4423 90.4625 13.1247 90.3132 13.7961Z" fill="currentcolor"/>
<path d="M107.112 10.7615C107.059 11.7344 106.933 12.7019 106.735 13.6559L105.31 21.7911H102.37L103.818 13.6559C103.946 13.0334 104.026 12.4016 104.056 11.7666C104.056 10.9353 103.7 10.7691 102.586 10.7691H99.1208L97.2013 21.776H94.2578L96.6081 8.32812H103.13C106.183 8.34324 107.112 9.06872 107.112 10.7615Z" fill="currentcolor"/>
<path d="M112.333 21.9715H117.879C121.093 21.9715 122.473 21.5668 123.045 18.3532L123.473 15.9727C123.568 15.4728 123.783 14.0683 123.783 13.4017C123.783 11.6164 122.497 11.3307 120.474 11.3307H117.427C116.76 11.3307 116.427 11.2117 116.427 10.807C116.427 10.5928 116.498 10.1167 116.617 9.49773L116.903 8.02182C117.141 6.80777 117.332 6.56972 118.427 6.56972H124.211L125.306 3.95117H118.26C115.284 3.95117 114.356 4.61771 113.856 7.47431L113.404 9.99763C113.285 10.688 113.19 11.3069 113.19 11.8306C113.19 13.3303 113.832 14.0683 115.76 14.0683H119.307C120.164 14.0683 120.498 14.1159 120.498 14.6396C120.498 14.9015 120.45 15.4252 120.283 16.2583L120.045 17.4962C119.736 19.1625 119.498 19.3292 117.927 19.3292H111.856L112.333 21.9715Z" fill="currentcolor"/>
<path d="M130.124 10.8784H133.909L134.337 8.47411H130.552L131.266 4.47488H128.314L127.6 8.47411H125.815L125.41 10.8784H127.172L126.101 16.9487C125.958 17.7104 125.839 18.5436 125.839 19.1625C125.839 21.2574 127.172 21.9715 129.838 21.9715H131.576L132.599 19.5672H130.981C129.433 19.5672 128.838 19.5434 128.838 18.5912C128.838 18.2103 128.933 17.5914 129.052 16.9487L130.124 10.8784Z" fill="currentcolor"/>
<path fill-rule="evenodd" clip-rule="evenodd" d="M136.155 8.47411H142.344C145.034 8.47411 146.081 9.21207 146.081 10.926C146.081 11.4973 145.915 12.4495 145.772 13.2589L144.248 21.9715H137.107C134.798 21.9715 134.084 21.1384 134.084 19.5672C134.084 18.9959 134.179 18.377 134.298 17.6628L134.441 16.8535C135.012 13.6636 136.059 13.4732 139.297 13.4732H142.868L142.939 13.0447C143.034 12.5448 143.106 12.1639 143.106 11.8306C143.106 11.1165 142.701 10.8784 141.344 10.8784H136.559L136.155 8.47411ZM137.059 18.8531C137.059 19.4244 137.297 19.5672 137.94 19.5672H141.796L142.463 15.7584H138.749C137.75 15.7584 137.512 15.9727 137.345 16.9487L137.154 18.0199C137.083 18.4008 137.059 18.6626 137.059 18.8531Z" fill="currentcolor"/>
<path d="M146.66 21.9715H149.636L151.231 12.9971C151.54 11.2117 151.897 10.926 153.611 10.926H155.778L156.801 8.47411H153.516C149.779 8.47411 148.922 9.14065 148.279 12.8304L146.66 21.9715Z" fill="currentcolor"/>
<path d="M165.098 10.8784H161.313L160.242 16.9487C160.123 17.5914 160.028 18.2103 160.028 18.5912C160.028 19.5434 160.623 19.5672 162.17 19.5672H163.789L162.765 21.9715H161.027C158.361 21.9715 157.028 21.2574 157.028 19.1625C157.028 18.5436 157.147 17.7104 157.29 16.9487L158.361 10.8784H156.6L157.004 8.47411H158.79L159.504 4.47488H162.456L161.742 8.47411H165.527L165.098 10.8784Z" fill="currentcolor"/>
<path fill-rule="evenodd" clip-rule="evenodd" d="M173.343 8.30748H171.724C168.225 8.30748 166.844 8.97402 166.273 12.2591L165.345 17.5914C165.249 18.1627 165.178 18.7579 165.178 19.2578C165.178 21.186 166.273 21.9715 169.368 21.9715H173.748L174.724 19.5672H169.939C168.558 19.5672 168.13 19.3768 168.13 18.5436C168.13 18.2818 168.177 17.9009 168.249 17.4962L168.368 16.7582H173.605C175.581 16.7582 176.366 16.0203 176.747 13.9016L177.08 12.0211C177.152 11.6402 177.176 11.2593 177.176 10.9736C177.176 8.97402 175.843 8.30748 173.343 8.30748ZM174.129 12.0211L173.867 13.5684C173.772 14.1873 173.51 14.4492 172.843 14.4492H168.796L169.177 12.2591C169.439 10.8308 169.963 10.688 171.058 10.688H172.748C173.843 10.688 174.2 10.8308 174.2 11.4021C174.2 11.5688 174.176 11.7354 174.129 12.0211Z" fill="currentcolor"/>
<path d="M179.919 21.9715H176.943L178.562 12.8304C179.205 9.14065 180.062 8.47411 183.799 8.47411H187.084L186.06 10.926H183.894C182.18 10.926 181.823 11.2117 181.514 12.9971L179.919 21.9715Z" fill="currentcolor"/>
<path d="M5.21231 5.28999H0.481548C0.412498 5.29078 0.344103 5.27654 0.281107 5.24826C0.21811 5.21998 0.162019 5.17833 0.116725 5.12621C0.0714314 5.07408 0.0380182 5.01273 0.0188032 4.9464C-0.000411771 4.88008 -0.00496858 4.81036 0.00544886 4.7421L0.783833 0.377856C0.80328 0.271783 0.8593 0.175885 0.942146 0.106846C1.02499 0.0378082 1.12942 0 1.23726 0L6.14939 0L5.21231 5.28999Z" fill="#0064FF"/>
<path d="M8.52984 16.5117H3.22852L5.21226 5.29688H10.5136L8.52984 16.5117Z" fill="url(#paint0_linear_18110_34031)"/>
<path d="M7.20647 21.8093H2.85735C2.78839 21.8085 2.72041 21.7929 2.65803 21.7635C2.59565 21.7341 2.54035 21.6915 2.49589 21.6388C2.45142 21.5861 2.41884 21.5244 2.40036 21.458C2.38188 21.3916 2.37794 21.3219 2.38881 21.2538L3.23142 16.5117H8.52142L7.65235 21.4239C7.63472 21.53 7.58048 21.6267 7.49905 21.6971C7.41761 21.7675 7.3141 21.8072 7.20647 21.8093V21.8093Z" fill="#009BFF"/>
<path d="M20.0919 5.28999H5.21191L6.149 0H20.8476C20.9168 0.00013044 20.9851 0.0153276 21.0478 0.0445343C21.1105 0.0737409 21.166 0.116256 21.2106 0.169121C21.2552 0.221986 21.2878 0.283932 21.306 0.35065C21.3242 0.417368 21.3277 0.487255 21.3162 0.555449L20.5416 4.91213C20.5236 5.01823 20.4685 5.11448 20.3862 5.1837C20.3038 5.25293 20.1995 5.2906 20.0919 5.28999V5.28999Z" fill="url(#paint1_linear_18110_34031)"/>
<defs>
<linearGradient id="paint0_linear_18110_34031" x1="7.81543" y1="4.88815" x2="7.92589" y2="15.4398" gradientUnits="userSpaceOnUse">
<stop stop-color="#009BFF"/>
<stop offset="0.35" stop-color="#0081FE"/>
<stop offset="0.75" stop-color="#006AFD"/>
<stop offset="1" stop-color="#0062FD"/>
</linearGradient>
<linearGradient id="paint1_linear_18110_34031" x1="5.68577" y1="2.65136" x2="20.3785" y2="5.41299" gradientUnits="userSpaceOnUse">
<stop offset="0.03" stop-color="#E9FFFF"/>
<stop offset="0.17" stop-color="#C4FAC9"/>
<stop offset="0.33" stop-color="#A0F694"/>
<stop offset="0.48" stop-color="#82F269"/>
<stop offset="0.63" stop-color="#6AEF47"/>
<stop offset="0.76" stop-color="#5AED2F"/>
<stop offset="0.89" stop-color="#4FEB20"/>
<stop offset="1" stop-color="#4CEB1B"/>
</linearGradient>
</defs>
</svg>
