<svg width="88" height="48" viewBox="0 0 88 48" fill="none" xmlns="http://www.w3.org/2000/svg">
    <path d="M0 0H88V48H0V0Z" fill="var(--td-component-border)"/>
    <path d="M42.8627 14.0518V16.7601H44.4877V14.0518H42.8627Z" fill="var(--td-text-color-primary)"/>
    <path fill-rule="evenodd" clip-rule="evenodd" d="M38.3488 23.9824C38.3488 21.0407 40.7335 18.656 43.6752 18.656C46.6168 18.656 49.0015 21.0407 49.0015 23.9824C49.0015 26.9241 46.6168 29.3088 43.6752 29.3088C40.7335 29.3088 38.3488 26.9241 38.3488 23.9824ZM43.6752 20.281C41.6309 20.281 39.9738 21.9382 39.9738 23.9824C39.9738 26.0266 41.6309 27.6838 43.6752 27.6838C45.7194 27.6838 47.3766 26.0266 47.3766 23.9824C47.3766 21.9382 45.7194 20.281 43.6752 20.281Z" fill="var(--td-text-color-primary)"/>
    <path fill-rule="evenodd" clip-rule="evenodd" d="M52.208 26.781H49.5867L47.5262 33.48L49.0794 33.9577L49.5903 32.2968H52.2045L52.7154 33.9577L54.2686 33.48L52.208 26.781ZM51.7047 30.6718L51.0077 28.406H50.787L50.0901 30.6718H51.7047Z" fill="var(--td-text-color-primary)"/>
    <path d="M48.2077 18.3009L50.1225 16.3861L51.2715 17.5351L49.3567 19.4499L48.2077 18.3009Z" fill="var(--td-text-color-primary)"/>
    <path d="M53.6057 23.1699H50.8974V24.7949H53.6057V23.1699Z" fill="var(--td-text-color-primary)"/>
    <path d="M44.4877 31.2045V33.9129H42.8627V31.2045H44.4877Z" fill="var(--td-text-color-primary)"/>
    <path d="M37.2279 31.5786L39.1427 29.6638L37.9936 28.5147L36.0788 30.4295L37.2279 31.5786Z" fill="var(--td-text-color-primary)"/>
    <path d="M36.453 24.7949H33.7446V23.1699H36.453V24.7949Z" fill="var(--td-text-color-primary)"/>
    <path d="M36.0788 17.5351L37.9936 19.4499L39.1427 18.3009L37.2279 16.3861L36.0788 17.5351Z" fill="var(--td-text-color-primary)"/>
    </svg>
    