<svg width="50" height="50" viewBox="0 0 50 50" fill="none" xmlns="http://www.w3.org/2000/svg">
    <rect x="0.5" y="0.5" width="49" height="49" rx="24.5" fill="#00A870" stroke="none" />
    <path
        d="M15.875 19.7266V31H20.1016C23.4766 31 25.4062 28.9297 25.4062 25.3125C25.4062 21.7734 23.4531 19.7266 20.1016 19.7266H15.875ZM17.8906 21.4688H19.8359C22.0469 21.4688 23.3516 22.8828 23.3516 25.3438C23.3516 27.8594 22.0781 29.2578 19.8359 29.2578H17.8906V21.4688ZM30.5938 31.1406C31.7812 31.1406 32.7656 30.5859 33.25 29.6484H33.3828V31H35.2578V19.1484H33.3203V23.8125H33.1875C32.7344 22.875 31.7656 22.3125 30.5938 22.3125C28.4375 22.3125 27.0781 24.0156 27.0781 26.7188C27.0781 29.4375 28.4297 31.1406 30.5938 31.1406ZM31.1953 23.9609C32.5234 23.9609 33.3438 25.0234 33.3438 26.7266C33.3438 28.4453 32.5312 29.4922 31.1953 29.4922C29.8672 29.4922 29.0625 28.4531 29.0625 26.7266C29.0625 25.0078 29.875 23.9609 31.1953 23.9609Z"
        fill="white" />
</svg>
    