<svg width="200" height="140" viewBox="0 0 200 140" fill="none" xmlns="http://www.w3.org/2000/svg">
  <g mask="url(#mask0_21_716)">
    <path fill-rule="evenodd" clip-rule="evenodd"
      d="M33 46.843L96.3214 119L159.643 46.843C142.742 31.9998 120.583 23 96.3214 23C72.0601 23 49.9009 31.9998 33 46.843Z"
      fill="#97A3B7" />
    <g filter="url(#filter0_f_21_716)">
      <rect x="95" y="21" width="80" height="60" fill="#E3E6EB" />
    </g>
    <g filter="url(#filter1_f_21_716)">
      <rect x="-7" y="43" width="80" height="60" fill="#E3E6EB" />
    </g>
  </g>
  <path
    d="M72.8122 63.6882L69.6548 66.8455L75.9009 73.0916C71.2469 75.1648 66.9663 77.925 63.188 81.2433L96.3213 119L108.234 105.425L114.647 111.837L117.804 108.68L80.4504 71.3261C80.4505 71.3261 80.4503 71.3261 80.4504 71.3261L72.8122 63.6882Z"
    fill="currentcolor" />
  <path
    d="M129.455 81.2433L114.137 98.6982L85.3974 69.9585C88.9142 69.1786 92.5697 68.7674 96.3213 68.7674C109.016 68.7674 120.611 73.4766 129.455 81.2433Z"
    fill="currentcolor" />
  <path
    d="M152 21.822L156.867 38.875L157 39.3405L157.469 39.2228L174.671 34.911L162.336 47.6522L161.999 48L162.336 48.3478L174.671 61.089L157.469 56.7772L157 56.6595L156.867 57.125L152 74.178L147.133 57.125L147 56.6595L146.531 56.7772L129.329 61.089L141.664 48.3478L142.001 48L141.664 47.6522L129.329 34.911L146.531 39.2228L147 39.3405L147.133 38.875L152 21.822Z"
    fill="white" stroke="black" />
  <path d="M101 31L90 42L101 53L93 61" stroke="white" stroke-width="2" />
</svg>