<svg width="50" height="50" viewBox="0 0 50 50" fill="none" xmlns="http://www.w3.org/2000/svg">
    <rect x="0.5" y="0.5" width="49" height="49" rx="24.5" fill="#0594FA" stroke="none" />
    <path
        d="M20.6641 31C23.0703 31 24.5391 29.7734 24.5391 27.7969C24.5391 26.3281 23.4922 25.2344 21.9766 25.0938V24.9531C23.1094 24.7734 23.9844 23.7266 23.9844 22.5391C23.9844 20.8047 22.6953 19.7266 20.5547 19.7266H15.8438V31H20.6641ZM17.8594 21.3281H20.0625C21.2812 21.3281 21.9922 21.9062 21.9922 22.8984C21.9922 23.9141 21.2344 24.4688 19.8047 24.4688H17.8594V21.3281ZM17.8594 29.3984V25.9219H20.125C21.6641 25.9219 22.4766 26.5156 22.4766 27.6406C22.4766 28.7891 21.6875 29.3984 20.2031 29.3984H17.8594ZM31.2812 31.1406C33.4375 31.1406 34.7891 29.4453 34.7891 26.7266C34.7891 23.9922 33.4453 22.3125 31.2812 22.3125C30.1094 22.3125 29.125 22.8828 28.6797 23.8125H28.5469V19.1484H26.6094V31H28.4766V29.6484H28.6094C29.0938 30.5859 30.0859 31.1406 31.2812 31.1406ZM30.6719 23.9609C31.9922 23.9609 32.7969 25.0078 32.7969 26.7266C32.7969 28.4453 32 29.4922 30.6719 29.4922C29.3438 29.4922 28.5156 28.4297 28.5156 26.7266C28.5156 25.0234 29.3516 23.9609 30.6719 23.9609Z"
        fill="white" />
</svg>
    