<svg width="80" height="80" viewBox="0 0 80 80" fill="none" xmlns="http://www.w3.org/2000/svg">
<path d="M5.61127 24.8528C5.93259 19.9058 9.90987 16.0289 14.8612 15.7836C22.031 15.4284 32.2787 15 40 15C47.7213 15 57.969 15.4284 65.1388 15.7836C70.0901 16.0289 74.0674 19.9058 74.3887 24.8528C74.6966 29.5923 75 35.4241 75 40C75 44.5759 74.6966 50.4077 74.3887 55.1472C74.0674 60.0942 70.0901 63.9711 65.1388 64.2164C57.969 64.5716 47.7213 65 40 65C32.2787 65 22.031 64.5716 14.8612 64.2164C9.90987 63.9711 5.93259 60.0942 5.61127 55.1472C5.30341 50.4077 5 44.5759 5 40C5 35.4241 5.30341 29.5923 5.61127 24.8528Z" fill="#FC0D1B"/>
<path d="M32.5 30V50L52.5 40L32.5 30Z" fill="white"/>
</svg>
