<svg width="41" height="40" viewBox="0 0 41 40" fill="none" xmlns="http://www.w3.org/2000/svg">
<rect x="0.5" width="40" height="40" rx="20" fill="#1B4BF1"/>
<path opacity="0.5" d="M28.9266 15.7265C29.1963 13.9679 28.9266 12.7956 27.9826 11.7134C26.9487 10.496 25.0607 10 22.6333 10H15.6657C15.1713 10 14.7667 10.3607 14.6768 10.8567L11.7549 29.3437C11.7099 29.7044 11.9797 30.02 12.3393 30.02H16.6547L16.34 31.9138C16.2951 32.2295 16.5198 32.5 16.8794 32.5H20.5205C20.9701 32.5 21.3297 32.1844 21.3746 31.7786L22.1388 26.999C22.1838 26.5932 22.5883 26.2776 22.9929 26.2776H23.5323C27.0386 26.2776 29.8256 24.8347 30.6348 20.6864C30.9494 18.9729 30.8146 17.485 29.9155 16.493C29.6458 16.1774 29.3311 15.9519 28.9266 15.7265" fill="white"/>
<path d="M28.9266 15.7265C29.1963 13.9679 28.9266 12.7956 27.9826 11.7134C26.9487 10.496 25.0607 10 22.6333 10H15.6657C15.1713 10 14.7667 10.3607 14.6768 10.8567L11.7549 29.3437C11.7099 29.7044 11.9797 30.02 12.3393 30.02H16.6547L17.6886 23.3467C17.7785 22.8507 18.183 22.49 18.6775 22.49H20.7453C24.791 22.49 27.9376 20.8667 28.8367 16.0872C28.8816 15.997 28.8816 15.8617 28.9266 15.7265Z" fill="white"/>
<path fill-rule="evenodd" clip-rule="evenodd" d="M30.1209 16.096C30.1192 16.105 30.1161 16.121 30.1115 16.1467C30.1057 16.1785 30.0932 16.2474 30.0743 16.3214C30.0669 16.3504 30.0572 16.3854 30.0445 16.425C29.5373 19.0088 28.3926 20.8874 26.6974 22.0981C25.0064 23.3058 22.9195 23.74 20.7452 23.74H18.8924L17.7258 31.27H12.3392C11.1964 31.27 10.3804 30.2642 10.5144 29.1891L10.5169 29.1688L13.4442 10.6476L13.4467 10.6338C13.6357 9.59143 14.519 8.75 15.6656 8.75H22.6332C25.1361 8.75 27.5194 9.24302 28.9298 10.8979C29.516 11.5715 29.9235 12.3133 30.1267 13.1814C30.3266 14.0353 30.3118 14.9394 30.162 15.916L30.146 16.0204L30.1209 16.096ZM27.9825 11.7134C26.9486 10.496 25.0606 10 22.6332 10H15.6656C15.1712 10 14.7666 10.3607 14.6767 10.8567L11.7548 29.3437C11.7099 29.7044 11.9796 30.02 12.3392 30.02H16.6546L17.6885 23.3467C17.7784 22.8507 18.1829 22.49 18.6774 22.49H20.7452C24.7909 22.49 27.9375 20.8667 28.8366 16.0872C28.8609 16.0384 28.8721 15.9763 28.8843 15.9082C28.8947 15.8505 28.9059 15.7885 28.9265 15.7265C29.1962 13.9679 28.9265 12.7956 27.9825 11.7134Z" fill="#1B4BF1"/>
<path d="M18.9023 15.7715C18.9472 15.4559 19.3518 15.0501 19.7564 15.0501H25.2405C25.8698 15.0501 26.4992 15.0952 27.0386 15.1854C27.5331 15.2755 28.4321 15.501 28.8816 15.7715C29.1513 14.013 28.8816 12.8407 27.9376 11.7585C26.9487 10.496 25.0607 10 22.6333 10H15.6657C15.1713 10 14.7667 10.3607 14.6768 10.8567L11.7549 29.3437C11.7099 29.7044 11.9797 30.02 12.3393 30.02H16.6547L18.9023 15.7715V15.7715Z" fill="white"/>
</svg>
