<svg width="32" height="32" viewBox="0 0 32 32" fill="none" xmlns="http://www.w3.org/2000/svg">
<path d="M19.3851 10.9171C20.4654 9.0306 19.8243 6.61829 17.9532 5.5291C16.0821 4.4399 13.6896 5.08628 12.6093 6.97282L4.53087 21.0806C3.45059 22.9671 4.09168 25.3794 5.96277 26.4686C7.83387 27.5578 10.2264 26.9114 11.3067 25.0249L19.3851 10.9171Z" fill="#F8BB2D"/>
<path d="M11.8263 23.0546C11.8263 25.2336 10.0743 27 7.91313 27C5.75197 27 4 25.2336 4 23.0546C4 20.8756 5.75197 19.1091 7.91313 19.1091C10.0743 19.1091 11.8263 20.8756 11.8263 23.0546Z" fill="#3BA757"/>
<path d="M12.621 10.9171C11.5407 9.0306 12.1818 6.61829 14.0529 5.5291C15.924 4.4399 18.3165 5.08628 19.3968 6.97282L27.4752 21.0806C28.5555 22.9671 27.9144 25.3794 26.0433 26.4686C24.1722 27.5578 21.7797 26.9114 20.6994 25.0249L12.621 10.9171Z" fill="#4689F2"/>
</svg>
