<svg width="40" height="40" viewBox="0 0 40 40" fill="none" xmlns="http://www.w3.org/2000/svg">
<path d="M37.5 20C37.5 29.66 29.6687 37.5 20 37.5C10.3312 37.5 2.5 29.66 2.5 20C2.5 10.3312 10.3312 2.49999 20 2.49999C29.6687 2.49999 37.5 10.3312 37.5 20Z" fill="#283544"/>
<path d="M28.2026 15.5717C28.1071 15.6274 25.8338 16.8031 25.8338 19.4098C25.941 22.3826 28.7026 23.4252 28.75 23.4252C28.7026 23.4809 28.3331 24.8454 27.2383 26.2757C26.3696 27.5078 25.4053 28.75 23.941 28.75C22.5481 28.75 22.0481 27.9288 20.441 27.9288C18.715 27.9288 18.2267 28.75 16.9052 28.75C15.441 28.75 14.4052 27.4412 13.4891 26.2207C12.2989 24.6232 11.2872 22.1164 11.2515 19.7093C11.2274 18.4338 11.4899 17.18 12.156 16.1151C13.0962 14.6283 14.7748 13.619 16.6079 13.5858C18.0124 13.5416 19.2624 14.4843 20.1195 14.4843C20.941 14.4843 22.4767 13.5858 24.2143 13.5858C24.9643 13.5865 26.9643 13.797 28.2026 15.5717ZM20.0008 13.3311C19.7508 12.1663 20.441 11.0015 21.0838 10.2585C21.9053 9.3599 23.2026 8.75 24.3214 8.75C24.3928 9.91481 23.9402 11.0572 23.1312 11.8892C22.4053 12.7878 21.1553 13.4642 20.0008 13.3311Z" fill="white"/>
</svg>
