<svg width="41" height="40" viewBox="0 0 41 40" fill="none" xmlns="http://www.w3.org/2000/svg">
<path d="M20.5 2.5C10.8477 2.5 3 10.3477 3 20C3 29.6523 10.8477 37.5 20.5 37.5C30.1523 37.5 38 29.6523 38 20C38 10.3477 30.1523 2.5 20.5 2.5Z" fill="#F9981B"/>
<path fill-rule="evenodd" clip-rule="evenodd" d="M26.5124 22.5475C26.461 22.4738 26.4093 22.4016 26.3578 22.3298C25.9392 21.7463 25.5402 21.1902 25.5402 20.0754V15.9195C25.5402 15.775 25.541 15.6315 25.5418 15.4891C25.551 13.8957 25.5593 12.4417 24.4101 11.3294C23.4246 10.3467 21.7876 10 20.5357 10C18.0872 10 15.3558 10.947 14.783 14.0851C14.7223 14.4184 14.9558 14.5929 15.1675 14.642L17.6607 14.9218C17.8941 14.9095 18.0627 14.6715 18.1079 14.4318C18.3217 13.3505 19.195 12.831 20.1762 12.831C20.7054 12.831 21.3063 13.0316 21.6196 13.5238C21.9425 14.0146 21.9374 14.6699 21.9328 15.2558C21.9323 15.3241 21.9317 15.3914 21.9317 15.4574V15.8058C21.7004 15.8326 21.458 15.858 21.2083 15.8842C19.8486 16.0267 18.2732 16.1919 17.0932 16.7283C15.4823 17.4517 14.3511 18.9238 14.3511 21.0876C14.3511 23.8606 16.0344 25.2469 18.2016 25.2469C20.0305 25.2469 21.0314 24.7993 22.4423 23.3077C22.5128 23.4136 22.5762 23.5113 22.6358 23.6033C22.9724 24.1222 23.1921 24.4609 23.9171 25.0864C24.1085 25.1923 24.3618 25.1883 24.5314 25.0289C25.0451 24.5552 25.9779 23.7146 26.5039 23.2576C26.714 23.0786 26.6767 22.7894 26.5124 22.5475ZM21.4505 21.3491C21.0421 22.1015 20.3916 22.5619 19.6689 22.5619C18.6834 22.5619 18.1047 21.7816 18.1047 20.6272C18.1047 18.3547 20.0714 17.9423 21.9312 17.9423C21.9312 18.0782 21.9325 18.2149 21.9337 18.352C21.9428 19.3807 21.9521 20.4299 21.4505 21.3491Z" fill="white"/>
<path d="M29.5873 27.0823C27.1246 28.9867 23.5531 30 20.4773 30C16.1681 30 12.2866 28.3307 9.34948 25.5515C9.11909 25.333 9.32473 25.0346 9.60151 25.2042C12.7708 27.1371 16.6894 28.3006 20.7367 28.3006C23.4672 28.3006 26.4682 27.7073 29.2295 26.479C29.646 26.2944 29.9951 26.7674 29.5873 27.0823Z" fill="white"/>
<path d="M27.7363 25.7559C28.5293 25.6555 30.2974 25.4334 30.6122 25.8556C30.9273 26.2775 30.2654 28.0124 29.967 28.7943L29.9649 28.8C29.8751 29.0358 30.0681 29.1299 30.2715 28.9512C31.5931 27.7933 31.9346 25.366 31.6638 25.0143C31.3951 24.6674 29.0847 24.367 27.6747 25.4049C27.458 25.5659 27.4951 25.7852 27.7363 25.7559Z" fill="white"/>
</svg>
