<svg width="40" height="40" viewBox="0 0 40 40" fill="none" xmlns="http://www.w3.org/2000/svg">
<path d="M20 2.5C10.3477 2.5 2.5 10.3477 2.5 20C2.5 29.6523 10.3477 37.5 20 37.5C29.6523 37.5 37.5 29.6523 37.5 20C37.5 10.3477 29.6523 2.5 20 2.5Z" fill="#87E64B"/>
<path d="M20.4865 30C20.9801 30 21.3803 29.5998 21.3803 29.1062C21.3803 28.6126 20.9801 28.2125 20.4865 28.2125C19.9929 28.2125 19.5928 28.6126 19.5928 29.1062C19.5928 29.5998 19.9929 30 20.4865 30Z" fill="white"/>
<path d="M25.6233 23.0134L20.5833 23.5539C20.4895 23.5633 20.4427 23.4477 20.5177 23.3883L25.4483 19.5482C25.767 19.2857 25.9732 18.8795 25.8857 18.4421C25.7982 17.7734 25.2452 17.336 24.5453 17.4235L19.1866 18.2077C19.0928 18.2202 19.0428 18.1015 19.1178 18.0421L24.4297 13.9864C25.4764 13.1709 25.5639 11.5711 24.6046 10.6399C23.7329 9.76817 22.3331 9.79629 21.4613 10.6681L12.903 19.3763C12.5843 19.7263 12.4374 20.1919 12.5249 20.6855C12.6718 21.4729 13.4561 21.9947 14.2435 21.851L18.8585 20.9105C18.9585 20.8886 19.0116 21.023 18.9272 21.0792L13.8091 24.3569C13.1686 24.7631 12.878 25.4912 13.0811 26.2192C13.2842 27.1785 14.2466 27.7315 15.1777 27.5003L22.8299 25.6162C22.9174 25.5943 22.9798 25.6943 22.9236 25.763L21.73 27.2378C21.4113 27.644 21.9331 28.1971 22.3705 27.8784L26.3013 24.6475C27.0012 24.0664 26.5356 22.929 25.6326 23.0165L25.6233 23.0134Z" fill="white"/>
</svg>
