<svg width="40" height="40" viewBox="0 0 40 40" fill="none" xmlns="http://www.w3.org/2000/svg">
<circle cx="20" cy="20" r="17.5" fill="#1ED760"/>
<path d="M27.9554 27.0287C27.6564 27.5031 27.0186 27.6359 26.5203 27.3513C22.5937 25.0742 17.6705 24.5618 11.8503 25.8142C11.2922 25.9281 10.7341 25.6055 10.6145 25.0742C10.4949 24.5428 10.8338 24.0115 11.3919 23.8976C17.7502 22.5124 23.2116 23.1007 27.5966 25.6624C28.095 25.9471 28.2544 26.5543 27.9554 27.0287ZM29.9885 22.7022C29.6098 23.2904 28.8125 23.4612 28.1946 23.1196C23.7099 20.482 16.8732 19.7229 11.5712 21.26C10.8736 21.4497 10.1561 21.0892 9.95674 20.444C9.75742 19.7798 10.1361 19.0967 10.8338 18.9069C16.8931 17.1611 24.4274 17.9961 29.5899 21.0133C30.1679 21.3549 30.3672 22.1139 29.9885 22.7022ZM30.1679 18.1859C24.7862 15.1497 15.9164 14.865 10.774 16.3452C9.95674 16.5919 9.07973 16.1554 8.82061 15.3584C8.5615 14.5804 9.03987 13.7455 9.85708 13.4988C15.757 11.7909 25.5636 12.1325 31.7425 15.6241C32.48 16.0416 32.7192 16.9524 32.2807 17.6545C31.8621 18.3756 30.9054 18.6223 30.1679 18.1859Z" fill="white"/>
</svg>
