<svg width="40" height="40" viewBox="0 0 40 40" fill="none" xmlns="http://www.w3.org/2000/svg">
<path d="M20 2.5C10.3477 2.5 2.5 10.3477 2.5 20C2.5 29.6523 10.3477 37.5 20 37.5C29.6523 37.5 37.5 29.6523 37.5 20C37.5 10.3477 29.6523 2.5 20 2.5Z" fill="#FF5A5F"/>
<path d="M20.0002 24.6084C18.8528 23.1652 18.1779 21.9001 17.953 20.8178C17.728 19.9383 17.818 19.2393 18.2004 18.7206C18.6054 18.1118 19.2128 17.8186 20.0002 17.8186C20.7875 17.8186 21.3949 18.1118 21.7999 18.7206C22.1823 19.2393 22.2723 19.9383 22.0473 20.8178C21.7999 21.9227 21.125 23.1855 20.0002 24.6084ZM26.2812 27.9458C24.369 28.7801 22.477 27.4497 20.8573 25.6457C23.5366 22.2835 24.0315 19.6677 22.882 17.9742C22.2071 17.0046 21.2397 16.531 20.0002 16.531C17.503 16.531 16.1285 18.6507 16.6684 21.1109C16.9834 22.4413 17.8158 23.9544 19.143 25.6457C18.1475 26.7515 16.8414 28.0059 15.2736 28.1487C13.0015 28.487 11.222 26.2771 12.0319 23.9973L17.7933 12.0413C18.285 11.1425 18.8919 10.3726 19.9979 10.3726C20.8078 10.3726 21.4377 10.8462 21.7076 11.2295L27.9639 23.9973C28.5769 25.54 27.7996 27.2886 26.2812 27.9458ZM29.1832 23.5463L23.8268 12.3796C22.8145 10.305 22.0946 9.0625 20.0002 9.0625C17.9305 9.0625 17.0509 10.5057 16.151 12.3796L10.8171 23.5463C9.66976 26.7055 12.0319 29.4792 14.8912 29.4792C15.0712 29.4792 15.2499 29.4566 15.4311 29.4566C16.9159 29.2762 18.4479 28.3291 20.0002 26.6356C21.5524 28.3269 23.0844 29.2762 24.5692 29.4566C24.7505 29.4566 24.9291 29.4792 25.1091 29.4792C27.9684 29.4814 30.3306 26.7055 29.1832 23.5463Z" fill="white"/>
</svg>
