<svg width="32" height="32" viewBox="0 0 32 32" fill="none" xmlns="http://www.w3.org/2000/svg">
<path fill-rule="evenodd" clip-rule="evenodd" d="M16 30C23.732 30 30 23.732 30 16C30 8.26801 23.732 2 16 2C8.26801 2 2 8.26801 2 16C2 23.732 8.26801 30 16 30Z" fill="#2BDE73"/>
<path fill-rule="evenodd" clip-rule="evenodd" d="M14.357 13.4527L17.3808 9.20142C17.9525 8.40047 18.6904 8 19.5953 8C20.3334 8 20.972 8.25407 21.512 8.76237C22.0516 9.27068 22.3213 9.8791 22.3213 10.5876C22.3213 11.1114 22.1788 11.5736 21.8929 11.9741L19.1665 15.821L22.5 19.9222C22.8334 20.3303 23 20.808 23 21.3547C23 22.0788 22.7384 22.7004 22.2144 23.2203C21.6906 23.7403 21.0553 24 20.3096 24C19.492 24 18.8691 23.7423 18.4404 23.2261L14.357 18.2817V21.0082C14.357 21.7862 14.2182 22.3906 13.9403 22.8219C13.4324 23.6072 12.6943 24 11.7262 24C10.8452 24 10.1624 23.7112 9.67848 23.1337C9.22604 22.6022 9 21.8973 9 21.0198V10.9111C9 10.0793 9.22983 9.39412 9.69041 8.85495C10.1745 8.2851 10.841 8 11.6903 8C12.4999 8 13.1744 8.2851 13.7141 8.85495C14.0157 9.17056 14.2061 9.4902 14.2855 9.8137C14.3332 10.0141 14.357 10.3874 14.357 10.9343V13.4527Z" fill="white"/>
</svg>
