<svg width="40" height="40" viewBox="0 0 40 40" fill="none" xmlns="http://www.w3.org/2000/svg">
<circle cx="20" cy="20" r="17.5" fill="#FF8C00"/>
<path d="M27.4363 25.1256C27.408 24.8784 27.2659 24.3115 26.8965 24.1659H26.897C26.712 24.0931 26.5558 24.151 26.4852 24.2821C26.3713 24.486 26.4565 24.8784 26.6697 25.2278C26.8824 25.5768 27.0814 25.7513 27.2235 25.7513C27.3656 25.7513 27.4932 25.5768 27.4363 25.1256Z" fill="white"/>
<path d="M25.4485 26.1147C25.2213 25.9113 24.9657 25.8096 24.7384 25.8096C24.5398 25.8096 24.3836 25.8819 24.2839 26.013C24.0288 26.3326 24.1422 26.9148 24.5398 27.2638C24.7102 27.4239 24.9657 27.5111 25.2071 27.5111C25.4485 27.5111 25.6613 27.4094 25.7892 27.2494C26.0165 26.9293 25.8885 26.4931 25.4485 26.1147Z" fill="white"/>
<path d="M10 20.0061C10 25.5328 14.3728 30.0125 19.7687 30.0128C21.203 30.0128 22.6227 29.7365 24.7102 29.7216C26.5704 29.7216 28.615 30.3907 30.8583 32.4272C31.0856 32.6306 31.3835 32.3688 31.1849 32.1216C28.984 29.2565 26.9393 28.7185 24.8947 28.2529C22.3959 27.6856 21.1178 26.2603 20.2233 24.6749C20.0529 24.3549 19.9677 24.4132 19.9532 24.8205C19.9371 25.4198 19.98 26.0192 20.0812 26.6097H19.7833C16.2191 26.6097 13.3223 23.6424 13.3223 19.9917C13.3223 16.3409 16.2191 13.3737 19.7828 13.3737C23.347 13.3737 26.2438 16.3409 26.2438 19.9917C26.2438 20.2534 26.2292 20.5152 26.201 20.7624C25.7182 20.6752 24.7954 20.6607 24.1422 20.719C23.9008 20.748 23.9291 20.8641 24.114 20.8935C26.2438 21.3004 27.7063 22.6534 28.047 25.1112C28.0612 25.1695 28.1322 25.1839 28.1609 25.1405C29.0268 23.6424 29.5378 21.8822 29.5378 20.0061C29.5378 14.4798 25.1643 10 19.7687 10C14.3735 10 10 14.4794 10 20.0061Z" fill="white"/>
</svg>
