<svg width="21" height="21" viewBox="0 0 21 21" fill="none" xmlns="http://www.w3.org/2000/svg">
<g clip-path="url(#clip0_1589_35174)">
<path d="M14.353 1.12211C13.2697 0.720161 12.0979 0.500122 10.8747 0.500122C9.65153 0.500122 8.47981 0.720161 7.39649 1.12211L6.52692 10.5001L7.39649 19.8781C8.47981 20.2801 9.65153 20.5001 10.8747 20.5001C12.0979 20.5001 13.2697 20.2801 14.353 19.8781L15.2225 10.5001L14.353 1.12211Z" fill="#FFDA44"/>
<path d="M20.8749 10.4994C20.8749 6.19982 18.1612 2.53435 14.3531 1.12146V19.8775C18.1612 18.4645 20.8749 14.7991 20.8749 10.4994Z" fill="#D80027"/>
<path d="M0.874664 10.5C0.874664 14.7997 3.58841 18.4651 7.39642 19.8781V1.12207C3.58841 2.53496 0.874664 6.20043 0.874664 10.5Z" fill="black"/>
</g>
<defs>
<clipPath id="clip0_1589_35174">
<rect x="0.875" y="0.5" width="20" height="20" rx="10" fill="white"/>
</clipPath>
</defs>
</svg>
