<svg width="21" height="21" viewBox="0 0 21 21" fill="none" xmlns="http://www.w3.org/2000/svg">
<g clip-path="url(#clip0_1589_35172)">
<path d="M10.875 20.5C16.3978 20.5 20.875 16.0228 20.875 10.5C20.875 4.97715 16.3978 0.5 10.875 0.5C5.35215 0.5 0.875 4.97715 0.875 10.5C0.875 16.0228 5.35215 20.5 10.875 20.5Z" fill="#F0F0F0"/>
<path d="M20.7905 9.19564H8.70125H8.70122V0.737671C7.77708 0.942593 6.90094 1.27474 6.0925 1.71587V9.19556V9.1956H0.959771C0.904106 9.62259 0.875122 10.0579 0.875122 10.5C0.875122 10.942 0.904106 11.3774 0.959771 11.8043H6.09247H6.0925V19.284C6.90094 19.7251 7.77708 20.0574 8.70122 20.2622V11.8044V11.8044H20.7905C20.8461 11.3774 20.8751 10.942 20.8751 10.5C20.8751 10.0579 20.8461 9.62259 20.7905 9.19564Z" fill="#0052B4"/>
</g>
<defs>
<clipPath id="clip0_1589_35172">
<rect x="0.875" y="0.5" width="20" height="20" rx="10" fill="white"/>
</clipPath>
</defs>
</svg>
