 <svg

        width="24"
        height="24"
        viewBox="0 0 24 24"
        fill="none"
        xmlns="http://www.w3.org/2000/svg"
      >
        <path
          fill-rule="evenodd"
          clip-rule="evenodd"
          d="M13.9497 3.875C13.0836 2.375 10.9186 2.375 10.0525 3.875L2.54699 16.875C1.68096 18.375 2.76349 20.25 4.49554 20.25H19.5067C21.2387 20.25 22.3212 18.375 21.4552 16.875L13.9497 3.875ZM11.3516 4.625C11.6403 4.125 12.3619 4.125 12.6506 4.625L20.1562 17.625C20.4448 18.125 20.084 18.75 19.5067 18.75H4.49554C3.91819 18.75 3.55735 18.125 3.84603 17.625L11.3516 4.625ZM12.0018 8.56075C12.416 8.56075 12.7518 8.89653 12.7518 9.31075V13.5303C12.7518 13.9445 12.416 14.2803 12.0018 14.2803C11.5876 14.2803 11.2518 13.9445 11.2518 13.5303V9.31075C11.2518 8.89653 11.5876 8.56075 12.0018 8.56075ZM11.0009 16.0803C11.0009 15.528 11.4486 15.0803 12.0009 15.0803H12.0016C12.5539 15.0803 13.0016 15.528 13.0016 16.0803C13.0016 16.6326 12.5539 17.0803 12.0016 17.0803H12.0009C11.4486 17.0803 11.0009 16.6326 11.0009 16.0803Z"
          fill="currentColor"
        />
      </svg>
