<svg

            width="20"
            height="20"
            viewBox="0 0 20 20"
            fill="none"
            xmlns="http://www.w3.org/2000/svg"
          >
            <path
              fill-rule="evenodd"
              clip-rule="evenodd"
              d="M17.4175 9.9986C17.4178 10.1909 17.3446 10.3832 17.198 10.53L12.2013 15.5301C11.9085 15.8231 11.4337 15.8233 11.1407 15.5305C10.8477 15.2377 10.8475 14.7629 11.1403 14.4699L14.8604 10.7472L3.33301 10.7472C2.91879 10.7472 2.58301 10.4114 2.58301 9.99715C2.58301 9.58294 2.91879 9.24715 3.33301 9.24715L14.8549 9.24715L11.1403 5.53016C10.8475 5.23717 10.8477 4.7623 11.1407 4.4695C11.4336 4.1767 11.9085 4.17685 12.2013 4.46984L17.1588 9.43049C17.3173 9.568 17.4175 9.77087 17.4175 9.99715C17.4175 9.99763 17.4175 9.99812 17.4175 9.9986Z"
              fill="currentColor"
            />
          </svg>
