
 <svg

              width="13"
              height="12"
              viewBox="0 0 13 12"
              fill="none"
              xmlns="http://www.w3.org/2000/svg"
            >
              <path
                fill-rule="evenodd"
                clip-rule="evenodd"
                d="M6.06462 1.62393C6.20193 1.47072 6.40135 1.37432 6.62329 1.37432C6.6236 1.37432 6.62391 1.37432 6.62422 1.37432C6.81631 1.37415 7.00845 1.44731 7.15505 1.5938L10.1551 4.5918C10.4481 4.88459 10.4483 5.35946 10.1555 5.65246C9.86273 5.94546 9.38785 5.94562 9.09486 5.65283L7.37329 3.93247L7.37329 10.125C7.37329 10.5392 7.03751 10.875 6.62329 10.875C6.20908 10.875 5.87329 10.5392 5.87329 10.125L5.87329 3.93578L4.15516 5.65281C3.86218 5.94561 3.3873 5.94546 3.0945 5.65248C2.8017 5.35949 2.80185 4.88462 3.09484 4.59182L6.06462 1.62393Z"
                fill="currentColor"
              />
            </svg>
