 <svg

              width="25"
              height="24"
              viewBox="0 0 25 24"
              fill="none"
              xmlns="http://www.w3.org/2000/svg"
            >
              <path
                fill-rule="evenodd"
                clip-rule="evenodd"
                d="M21.4166 4.00001C21.4166 3.77689 21.3173 3.56536 21.1456 3.42287C20.9739 3.28039 20.7477 3.22173 20.5284 3.26285L8.52841 5.51285C8.17368 5.57936 7.91663 5.88909 7.91663 6.25001V9.98484C7.91644 9.99437 7.91644 10.0039 7.91663 10.0135V14.4585C7.3716 14.1636 6.72327 14 6.04163 14C5.16738 14 4.34794 14.2691 3.73094 14.7392C3.11333 15.2098 2.66663 15.9138 2.66663 16.75C2.66663 17.5862 3.11333 18.2902 3.73094 18.7608C4.34794 19.2309 5.16738 19.5 6.04163 19.5C6.91587 19.5 7.73532 19.2309 8.35231 18.7608C8.95774 18.2995 9.39893 17.6139 9.41611 16.7993C9.41645 16.79 9.41663 16.7806 9.41663 16.7712V16.75V10.62L19.9166 8.60938V12.2085C19.3716 11.9136 18.7233 11.75 18.0416 11.75C17.1674 11.75 16.3479 12.0191 15.7309 12.4892C15.1133 12.9598 14.6666 13.6638 14.6666 14.5C14.6666 15.3362 15.1133 16.0402 15.7309 16.5108C16.3479 16.9809 17.1674 17.25 18.0416 17.25C18.9159 17.25 19.7353 16.9809 20.3523 16.5108C20.9577 16.0495 21.3989 15.3639 21.4161 14.5493C21.4165 14.54 21.4166 14.5306 21.4166 14.5212V14.5V4.00001ZM19.9166 14.5C19.9166 14.2316 19.7757 13.9357 19.4432 13.6824C19.1102 13.4286 18.6171 13.25 18.0416 13.25C17.4661 13.25 16.9731 13.4286 16.64 13.6824C16.3076 13.9357 16.1666 14.2316 16.1666 14.5C16.1666 14.7684 16.3076 15.0643 16.64 15.3176C16.9731 15.5714 17.4661 15.75 18.0416 15.75C18.6171 15.75 19.1102 15.5714 19.4432 15.3176C19.7757 15.0643 19.9166 14.7684 19.9166 14.5ZM7.44325 15.9324C7.7757 16.1857 7.91663 16.4816 7.91663 16.75C7.91663 17.0184 7.7757 17.3143 7.44325 17.5676C7.11018 17.8214 6.61713 18 6.04163 18C5.46613 18 4.97307 17.8214 4.64 17.5676C4.30755 17.3143 4.16663 17.0184 4.16663 16.75C4.16663 16.4816 4.30755 16.1857 4.64 15.9324C4.97307 15.6786 5.46613 15.5 6.04163 15.5C6.61713 15.5 7.11018 15.6786 7.44325 15.9324ZM19.9166 7.08212V4.9037L9.41663 6.87245V9.09276L19.9166 7.08212Z"
                fill="currentColor"
              />
            </svg>
