<svg

                width="24"
                height="24"
                viewBox="0 0 24 24"
                fill="none"
                xmlns="http://www.w3.org/2000/svg"
              >
                <path
                  fill-rule="evenodd"
                  clip-rule="evenodd"
                  d="M11.665 3.75618C11.8762 3.65061 12.1247 3.65061 12.3358 3.75618L18.7807 6.97853L12.3358 10.2009C12.1247 10.3064 11.8762 10.3064 11.665 10.2009L5.22014 6.97853L11.665 3.75618ZM4.29297 8.19199V16.0946C4.29297 16.3787 4.45347 16.6384 4.70757 16.7654L11.25 20.0365V11.6512C11.1631 11.6205 11.0777 11.5843 10.9942 11.5425L4.29297 8.19199ZM12.75 20.037L19.2933 16.7654C19.5474 16.6384 19.7079 16.3787 19.7079 16.0946V8.19199L13.0066 11.5425C12.9229 11.5844 12.8372 11.6207 12.75 11.6515V20.037ZM13.0066 2.41453C12.3732 2.09783 11.6277 2.09783 10.9942 2.41453L4.03676 5.89316C3.27449 6.27429 2.79297 7.05339 2.79297 7.90563V16.0946C2.79297 16.9468 3.27448 17.7259 4.03676 18.1071L10.9942 21.5857L11.3296 20.9149L10.9942 21.5857C11.6277 21.9024 12.3732 21.9024 13.0066 21.5857L19.9641 18.1071C20.7264 17.7259 21.2079 16.9468 21.2079 16.0946V7.90563C21.2079 7.05339 20.7264 6.27429 19.9641 5.89316L13.0066 2.41453Z"
                  fill="currentColor"
                />
              </svg>
