<svg width="24" height="24" viewBox="0 0 24 24" fill="none" xmlns="http://www.w3.org/2000/svg">
<path fill-rule="evenodd" clip-rule="evenodd" d="M4.00002 12.0957C4.00002 7.67742 7.58174 4.0957 12 4.0957C16.4183 4.0957 20 7.67742 20 12.0957C20 16.514 16.4183 20.0957 12 20.0957H5.06068L6.34317 18.8132C6.48382 18.6726 6.56284 18.4818 6.56284 18.2829C6.56284 18.084 6.48382 17.8932 6.34317 17.7526C4.89463 16.304 4.00002 14.305 4.00002 12.0957ZM12 2.5957C6.75332 2.5957 2.50002 6.849 2.50002 12.0957C2.50002 14.4488 3.35633 16.603 4.77303 18.262L2.71969 20.3154C2.50519 20.5299 2.44103 20.8525 2.55711 21.1327C2.6732 21.413 2.94668 21.5957 3.25002 21.5957H12C17.2467 21.5957 21.5 17.3424 21.5 12.0957C21.5 6.849 17.2467 2.5957 12 2.5957ZM7.62502 10.8467C6.93467 10.8467 6.37502 11.4063 6.37502 12.0967C6.37502 12.787 6.93467 13.3467 7.62502 13.3467H7.62512C8.31548 13.3467 8.87512 12.787 8.87512 12.0967C8.87512 11.4063 8.31548 10.8467 7.62512 10.8467H7.62502ZM10.75 12.0967C10.75 11.4063 11.3097 10.8467 12 10.8467H12.0001C12.6905 10.8467 13.2501 11.4063 13.2501 12.0967C13.2501 12.787 12.6905 13.3467 12.0001 13.3467H12C11.3097 13.3467 10.75 12.787 10.75 12.0967ZM16.375 10.8467C15.6847 10.8467 15.125 11.4063 15.125 12.0967C15.125 12.787 15.6847 13.3467 16.375 13.3467H16.3751C17.0655 13.3467 17.6251 12.787 17.6251 12.0967C17.6251 11.4063 17.0655 10.8467 16.3751 10.8467H16.375Z" fill="currentColor"/>
</svg>
