  <svg

        width="24"
        height="24"
        viewBox="0 0 24 24"
        fill="none"
        xmlns="http://www.w3.org/2000/svg"
      >
        <path
          fill-rule="evenodd"
          clip-rule="evenodd"
          d="M3.55078 12C3.55078 7.33417 7.3332 3.55176 11.999 3.55176C16.6649 3.55176 20.4473 7.33417 20.4473 12C20.4473 16.6659 16.6649 20.4483 11.999 20.4483C7.3332 20.4483 3.55078 16.6659 3.55078 12ZM11.999 2.05176C6.50477 2.05176 2.05078 6.50574 2.05078 12C2.05078 17.4943 6.50477 21.9483 11.999 21.9483C17.4933 21.9483 21.9473 17.4943 21.9473 12C21.9473 6.50574 17.4933 2.05176 11.999 2.05176ZM15.5126 10.6333C15.8055 10.3405 15.8055 9.86558 15.5126 9.57269C15.2197 9.27979 14.7448 9.27979 14.4519 9.57269L11.1883 12.8364L9.54616 11.1942C9.25327 10.9014 8.7784 10.9014 8.4855 11.1942C8.19261 11.4871 8.19261 11.962 8.4855 12.2549L10.6579 14.4273C10.7986 14.568 10.9894 14.647 11.1883 14.647C11.3872 14.647 11.578 14.568 11.7186 14.4273L15.5126 10.6333Z"
          fill="currentColor"
        />
      </svg>
