   <svg
              width="17"
              height="16"
              viewBox="0 0 17 16"
              fill="none"
              xmlns="http://www.w3.org/2000/svg"
            >
              <path
                fill-rule="evenodd"
                clip-rule="evenodd"
                d="M4.05394 4.78033C3.76105 4.48744 3.76105 4.01256 4.05394 3.71967C4.34684 3.42678 4.82171 3.42678 5.1146 3.71967L8.33437 6.93944L11.5521 3.72173C11.845 3.42883 12.3199 3.42883 12.6127 3.72173C12.9056 4.01462 12.9056 4.48949 12.6127 4.78239L9.39503 8.0001L12.6127 11.2178C12.9056 11.5107 12.9056 11.9856 12.6127 12.2785C12.3198 12.5713 11.845 12.5713 11.5521 12.2785L8.33437 9.06076L5.11462 12.2805C4.82173 12.5734 4.34685 12.5734 4.05396 12.2805C3.76107 11.9876 3.76107 11.5127 4.05396 11.2199L7.27371 8.0001L4.05394 4.78033Z"
                fill="currentColor"
              />
            </svg>
