 <svg

                width="24"
                height="24"
                viewBox="0 0 24 24"
                fill="none"
                xmlns="http://www.w3.org/2000/svg"
              >
                <path
                  fill-rule="evenodd"
                  clip-rule="evenodd"
                  d="M19.5 19.75C19.5 20.9926 18.4926 22 17.25 22H6.75C5.50736 22 4.5 20.9926 4.5 19.75V9.62105C4.5 9.02455 4.73686 8.45247 5.15851 8.03055L10.5262 2.65951C10.9482 2.23725 11.5207 2 12.1177 2H17.25C18.4926 2 19.5 3.00736 19.5 4.25V19.75ZM17.25 20.5C17.6642 20.5 18 20.1642 18 19.75V4.25C18 3.83579 17.6642 3.5 17.25 3.5H12.248L12.2509 7.49913C12.2518 8.7424 11.2442 9.75073 10.0009 9.75073H6V19.75C6 20.1642 6.33579 20.5 6.75 20.5H17.25ZM7.05913 8.25073L10.7488 4.55876L10.7509 7.5002C10.7512 7.91462 10.4153 8.25073 10.0009 8.25073H7.05913ZM8.25 14.5C8.25 14.0858 8.58579 13.75 9 13.75H15C15.4142 13.75 15.75 14.0858 15.75 14.5C15.75 14.9142 15.4142 15.25 15 15.25H9C8.58579 15.25 8.25 14.9142 8.25 14.5ZM8.25 17.5C8.25 17.0858 8.58579 16.75 9 16.75H12C12.4142 16.75 12.75 17.0858 12.75 17.5C12.75 17.9142 12.4142 18.25 12 18.25H9C8.58579 18.25 8.25 17.9142 8.25 17.5Z"
                  fill="currentColor"
                />
              </svg>
