 <svg

                                width="20"
                                height="20"
                                viewBox="0 0 20 20"
                                fill="none"
                                xmlns="http://www.w3.org/2000/svg"
                              >
                                <path
                                  fill-rule="evenodd"
                                  clip-rule="evenodd"
                                  d="M3.0415 7.06206V14.375C3.0415 14.6511 3.26536 14.875 3.5415 14.875H16.4582C16.7343 14.875 16.9582 14.6511 16.9582 14.375V7.06245L11.1441 11.1168C10.4568 11.5961 9.54348 11.5961 8.85614 11.1168L3.0415 7.06206ZM16.9582 5.19262C16.9582 5.19341 16.9582 5.1942 16.9582 5.19498V5.20026C16.957 5.22216 16.9458 5.24239 16.9277 5.25501L10.2861 9.88638C10.1143 10.0062 9.88596 10.0062 9.71412 9.88638L3.0723 5.25485C3.05318 5.24151 3.04178 5.21967 3.04177 5.19636C3.04176 5.15695 3.0737 5.125 3.1131 5.125H16.8869C16.925 5.125 16.9562 5.15494 16.9582 5.19262ZM18.4582 5.21428V14.375C18.4582 15.4796 17.5627 16.375 16.4582 16.375H3.5415C2.43693 16.375 1.5415 15.4796 1.5415 14.375V5.19498C1.5415 5.1852 1.54169 5.17546 1.54206 5.16577C1.55834 4.31209 2.25546 3.625 3.1131 3.625H16.8869C17.7546 3.625 18.4582 4.32843 18.4583 5.19622C18.4583 5.20225 18.4582 5.20826 18.4582 5.21428Z"
                                  fill="currentColor"
                                />
                              </svg>
