 <svg

                  width="20"
                  height="20"
                  viewBox="0 0 20 20"
                  fill="currentColor"
                  xmlns="http://www.w3.org/2000/svg"
                >
                  <path
                    fill-rule="evenodd"
                    clip-rule="evenodd"
                    d="M4.63803 3.57709C4.34513 3.2842 3.87026 3.2842 3.57737 3.57709C3.28447 3.86999 3.28447 4.34486 3.57737 4.63775L4.85323 5.91362C3.74609 6.84199 2.89363 8.06395 2.4155 9.45936C2.3615 9.61694 2.3615 9.78801 2.41549 9.94558C3.49488 13.0957 6.48191 15.3619 10.0002 15.3619C11.255 15.3619 12.4422 15.0737 13.4994 14.5598L15.3625 16.4229C15.6554 16.7158 16.1302 16.7158 16.4231 16.4229C16.716 16.13 16.716 15.6551 16.4231 15.3622L4.63803 3.57709ZM12.3608 13.4212L10.4475 11.5079C10.3061 11.5423 10.1584 11.5606 10.0064 11.5606H9.99151C8.96527 11.5606 8.13333 10.7286 8.13333 9.70237C8.13333 9.5461 8.15262 9.39434 8.18895 9.24933L5.91885 6.97923C5.03505 7.69015 4.34057 8.62704 3.92328 9.70247C4.86803 12.1373 7.23361 13.8619 10.0002 13.8619C10.8326 13.8619 11.6287 13.7058 12.3608 13.4212ZM16.0771 9.70249C15.7843 10.4569 15.3552 11.1432 14.8199 11.7311L15.8813 12.7925C16.6329 11.9813 17.2187 11.0143 17.5849 9.94561C17.6389 9.78803 17.6389 9.61696 17.5849 9.45938C16.5055 6.30925 13.5184 4.04303 10.0002 4.04303C9.13525 4.04303 8.30244 4.17999 7.52218 4.43338L8.75139 5.66259C9.1556 5.58413 9.57311 5.54303 10.0002 5.54303C12.7667 5.54303 15.1323 7.26768 16.0771 9.70249Z"
                  />
                </svg>
