<svg

                  width="20"
                  height="20"
                  viewBox="0 0 20 20"
                  fill="currentColor"
                  xmlns="http://www.w3.org/2000/svg"
                >
                  <path
                    fill-rule="evenodd"
                    clip-rule="evenodd"
                    d="M10.0002 13.8619C7.23361 13.8619 4.86803 12.1372 3.92328 9.70241C4.86804 7.26761 7.23361 5.54297 10.0002 5.54297C12.7667 5.54297 15.1323 7.26762 16.0771 9.70243C15.1323 12.1372 12.7667 13.8619 10.0002 13.8619ZM10.0002 4.04297C6.48191 4.04297 3.49489 6.30917 2.4155 9.4593C2.3615 9.61687 2.3615 9.78794 2.41549 9.94552C3.49488 13.0957 6.48191 15.3619 10.0002 15.3619C13.5184 15.3619 16.5055 13.0957 17.5849 9.94555C17.6389 9.78797 17.6389 9.6169 17.5849 9.45932C16.5055 6.30919 13.5184 4.04297 10.0002 4.04297ZM9.99151 7.84413C8.96527 7.84413 8.13333 8.67606 8.13333 9.70231C8.13333 10.7286 8.96527 11.5605 9.99151 11.5605H10.0064C11.0326 11.5605 11.8646 10.7286 11.8646 9.70231C11.8646 8.67606 11.0326 7.84413 10.0064 7.84413H9.99151Z"
                  />
                </svg>
