<svg
              class="fill-current"
              width="25"
              height="24"
              viewBox="0 0 25 24"
              fill="none"
              xmlns="http://www.w3.org/2000/svg"
            >
              <path
                fill-rule="evenodd"
                clip-rule="evenodd"
                d="M19.8335 19.75C19.8335 20.9926 18.8261 22 17.5835 22H7.0835C5.84086 22 4.8335 20.9926 4.8335 19.75V9.62105C4.8335 9.02455 5.07036 8.45247 5.49201 8.03055L10.8597 2.65951C11.2817 2.23725 11.8542 2 12.4512 2H17.5835C18.8261 2 19.8335 3.00736 19.8335 4.25V19.75ZM17.5835 20.5C17.9977 20.5 18.3335 20.1642 18.3335 19.75V4.25C18.3335 3.83579 17.9977 3.5 17.5835 3.5H12.5815L12.5844 7.49913C12.5853 8.7424 11.5776 9.75073 10.3344 9.75073H6.3335V19.75C6.3335 20.1642 6.66928 20.5 7.0835 20.5H17.5835ZM7.39262 8.25073L11.0823 4.55876L11.0844 7.5002C11.0847 7.91462 10.7488 8.25073 10.3344 8.25073H7.39262ZM8.5835 14.5C8.5835 14.0858 8.91928 13.75 9.3335 13.75H15.3335C15.7477 13.75 16.0835 14.0858 16.0835 14.5C16.0835 14.9142 15.7477 15.25 15.3335 15.25H9.3335C8.91928 15.25 8.5835 14.9142 8.5835 14.5ZM8.5835 17.5C8.5835 17.0858 8.91928 16.75 9.3335 16.75H12.3335C12.7477 16.75 13.0835 17.0858 13.0835 17.5C13.0835 17.9142 12.7477 18.25 12.3335 18.25H9.3335C8.91928 18.25 8.5835 17.9142 8.5835 17.5Z"
                fill="currentColor"
              />
            </svg>
