 <svg

                  width="20"
                  height="18"
                  viewBox="0 0 20 18"
                  fill="none"
                  xmlns="http://www.w3.org/2000/svg"
                >
                  <path
                    d="M9.05 3.9L8.45 4.35L9.05 3.9ZM2.25 2.25H6.5V0.75H2.25V2.25ZM1.5 15V3H0V15H1.5ZM17.75 15.75H2.25V17.25H17.75V15.75ZM18.5 6V15H20V6H18.5ZM17.75 3.75H10.25V5.25H17.75V3.75ZM9.65 3.45L8.3 1.65L7.1 2.55L8.45 4.35L9.65 3.45ZM10.25 3.75C10.0139 3.75 9.79164 3.63885 9.65 3.45L8.45 4.35C8.87492 4.91656 9.5418 5.25 10.25 5.25V3.75ZM20 6C20 4.75736 18.9926 3.75 17.75 3.75V5.25C18.1642 5.25 18.5 5.58579 18.5 6H20ZM17.75 17.25C18.9926 17.25 20 16.2426 20 15H18.5C18.5 15.4142 18.1642 15.75 17.75 15.75V17.25ZM0 15C0 16.2426 1.00736 17.25 2.25 17.25V15.75C1.83579 15.75 1.5 15.4142 1.5 15H0ZM6.5 2.25C6.73607 2.25 6.95836 2.36115 7.1 2.55L8.3 1.65C7.87508 1.08344 7.2082 0.75 6.5 0.75V2.25ZM2.25 0.75C1.00736 0.75 0 1.75736 0 3H1.5C1.5 2.58579 1.83579 2.25 2.25 2.25V0.75Z"
                    fill="currentColor"
                  />
                </svg>
