<svg

        width="24"
        height="24"
        viewBox="0 0 24 24"
        fill="none"
        xmlns="http://www.w3.org/2000/svg"
      >
        <path
          fill-rule="evenodd"
          clip-rule="evenodd"
          d="M8.12454 4.53906L15.8736 4.53906C16.1416 4.53906 16.3892 4.68201 16.5231 4.91406L20.3977 11.625C20.5317 11.857 20.5317 12.1429 20.3977 12.375L16.5231 19.0859C16.3892 19.3179 16.1416 19.4609 15.8736 19.4609H8.12454C7.85659 19.4609 7.609 19.3179 7.47502 19.0859L3.60048 12.375C3.46651 12.1429 3.46651 11.857 3.60048 11.625L7.47502 4.91406C7.609 4.68201 7.85659 4.53906 8.12454 4.53906ZM15.8736 3.03906H8.12454C7.3207 3.03906 6.57791 3.46791 6.17599 4.16406L2.30144 10.875C1.89952 11.5711 1.89952 12.4288 2.30144 13.125L6.17599 19.8359C6.57791 20.532 7.32069 20.9609 8.12454 20.9609H15.8736C16.6775 20.9609 17.4203 20.532 17.8222 19.8359L21.6967 13.125C22.0987 12.4288 22.0987 11.5711 21.6967 10.875L17.8222 4.16406C17.4203 3.46791 16.6775 3.03906 15.8736 3.03906ZM12.0007 7.81075C12.4149 7.81075 12.7507 8.14653 12.7507 8.56075V12.7803C12.7507 13.1945 12.4149 13.5303 12.0007 13.5303C11.5865 13.5303 11.2507 13.1945 11.2507 12.7803V8.56075C11.2507 8.14653 11.5865 7.81075 12.0007 7.81075ZM10.9998 15.3303C10.9998 14.778 11.4475 14.3303 11.9998 14.3303H12.0005C12.5528 14.3303 13.0005 14.778 13.0005 15.3303C13.0005 15.8826 12.5528 16.3303 12.0005 16.3303H11.9998C11.4475 16.3303 10.9998 15.8826 10.9998 15.3303Z"
          fill="currentColor"
        />
      </svg>
