<svg

                width="24"
                height="24"
                viewBox="0 0 24 24"
                fill="none"
                xmlns="http://www.w3.org/2000/svg"
              >
                <path
                  fill-rule="evenodd"
                  clip-rule="evenodd"
                  d="M5.5 3.25C4.25736 3.25 3.25 4.25736 3.25 5.5V18.5C3.25 19.7426 4.25736 20.75 5.5 20.75H18.5001C19.7427 20.75 20.7501 19.7426 20.7501 18.5V5.5C20.7501 4.25736 19.7427 3.25 18.5001 3.25H5.5ZM4.75 5.5C4.75 5.08579 5.08579 4.75 5.5 4.75H18.5001C18.9143 4.75 19.2501 5.08579 19.2501 5.5V18.5C19.2501 18.9142 18.9143 19.25 18.5001 19.25H5.5C5.08579 19.25 4.75 18.9142 4.75 18.5V5.5ZM6.25005 9.7143C6.25005 9.30008 6.58583 8.9643 7.00005 8.9643L17 8.96429C17.4143 8.96429 17.75 9.30008 17.75 9.71429C17.75 10.1285 17.4143 10.4643 17 10.4643L7.00005 10.4643C6.58583 10.4643 6.25005 10.1285 6.25005 9.7143ZM6.25005 14.2857C6.25005 13.8715 6.58583 13.5357 7.00005 13.5357H17C17.4143 13.5357 17.75 13.8715 17.75 14.2857C17.75 14.6999 17.4143 15.0357 17 15.0357H7.00005C6.58583 15.0357 6.25005 14.6999 6.25005 14.2857Z"
                  fill="currentColor"
                />
              </svg>
