<svg

                                width="20"
                                height="20"
                                viewBox="0 0 20 20"
                                fill="none"
                                xmlns="http://www.w3.org/2000/svg"
                              >
                                <path
                                  d="M10.6252 13.9582C10.6252 13.613 10.3453 13.3332 10.0002 13.3332C9.65498 13.3332 9.37516 13.613 9.37516 13.9582V15.2082C9.37516 15.5533 9.65498 15.8332 10.0002 15.8332C10.3453 15.8332 10.6252 15.5533 10.6252 15.2082V13.9582Z"
                                  fill="#667085"
                                />
                                <path
                                  fill-rule="evenodd"
                                  clip-rule="evenodd"
                                  d="M10.0002 1.6665C7.58392 1.6665 5.62516 3.62526 5.62516 6.0415V7.604H4.5835C3.54796 7.604 2.7085 8.44347 2.7085 9.479V16.4578C2.7085 17.4933 3.54796 18.3328 4.5835 18.3328H15.4168C16.4524 18.3328 17.2918 17.4933 17.2918 16.4578V9.479C17.2918 8.44347 16.4524 7.604 15.4168 7.604H14.3752V6.0415C14.3752 3.62526 12.4164 1.6665 10.0002 1.6665ZM13.1252 6.0415V7.604H6.87516V6.0415C6.87516 4.31561 8.27427 2.9165 10.0002 2.9165C11.7261 2.9165 13.1252 4.31561 13.1252 6.0415ZM4.5835 8.854C4.23832 8.854 3.9585 9.13383 3.9585 9.479V16.4578C3.9585 16.8029 4.23832 17.0828 4.5835 17.0828H15.4168C15.762 17.0828 16.0418 16.8029 16.0418 16.4578V9.479C16.0418 9.13383 15.762 8.854 15.4168 8.854H4.5835Z"
                                  fill="currentColor"
                                />
                              </svg>
