<svg

                width="24"
                height="24"
                viewBox="0 0 24 24"
                fill="none"
                xmlns="http://www.w3.org/2000/svg"
              >
                <path
                  fill-rule="evenodd"
                  clip-rule="evenodd"
                  d="M12 2C11.5858 2 11.25 2.33579 11.25 2.75V12C11.25 12.4142 11.5858 12.75 12 12.75H21.25C21.6642 12.75 22 12.4142 22 12C22 6.47715 17.5228 2 12 2ZM12.75 11.25V3.53263C13.2645 3.57761 13.7659 3.66843 14.25 3.80098V3.80099C15.6929 4.19606 16.9827 4.96184 18.0104 5.98959C19.0382 7.01734 19.8039 8.30707 20.199 9.75C20.3316 10.2341 20.4224 10.7355 20.4674 11.25H12.75ZM2 12C2 7.25083 5.31065 3.27489 9.75 2.25415V3.80099C6.14748 4.78734 3.5 8.0845 3.5 12C3.5 16.6944 7.30558 20.5 12 20.5C15.9155 20.5 19.2127 17.8525 20.199 14.25H21.7459C20.7251 18.6894 16.7492 22 12 22C6.47715 22 2 17.5229 2 12Z"
                  fill="currentColor"
                />
              </svg>
