 <svg
      width="12"
      height="12"
      viewBox="0 0 12 12"
      fill="none"
      xmlns="http://www.w3.org/2000/svg"
    >
      <path
        fill-rule="evenodd"
        clip-rule="evenodd"
        d="M5.25012 3C5.25012 2.58579 5.58591 2.25 6.00012 2.25C6.41433 2.25 6.75012 2.58579 6.75012 3V5.25012L9.00034 5.25012C9.41455 5.25012 9.75034 5.58591 9.75034 6.00012C9.75034 6.41433 9.41455 6.75012 9.00034 6.75012H6.75012V9.00034C6.75012 9.41455 6.41433 9.75034 6.00012 9.75034C5.58591 9.75034 5.25012 9.41455 5.25012 9.00034L5.25012 6.75012H3C2.58579 6.75012 2.25 6.41433 2.25 6.00012C2.25 5.58591 2.58579 5.25012 3 5.25012H5.25012V3Z"
        fill="currentColor"
      />
    </svg>
