   <svg

            width="24"
            height="24"
            viewBox="0 0 24 24"
            fill="none"
            xmlns="http://www.w3.org/2000/svg"
          >
            <path
              fill-rule="evenodd"
              clip-rule="evenodd"
              d="M20.3662 1.11216C20.6592 0.8193 21.134 0.819349 21.4269 1.11227C21.7198 1.4052 21.7197 1.88007 21.4268 2.17293L17.0308 6.56803C16.7379 6.8609 16.263 6.86085 15.9701 6.56792C15.6773 6.275 15.6773 5.80013 15.9702 5.50726L20.3662 1.11216ZM16.6592 2.696C16.952 2.40308 16.952 1.9282 16.659 1.63534C16.3661 1.34248 15.8913 1.34253 15.5984 1.63545L14.0987 3.13545C13.8058 3.42837 13.8059 3.90325 14.0988 4.19611C14.3917 4.48897 14.8666 4.48892 15.1595 4.196L16.6592 2.696ZM11.8343 3.45488C11.7079 3.19888 11.4472 3.0368 11.1617 3.0368C10.8762 3.0368 10.6155 3.19888 10.4892 3.45488L8.06431 8.36817L2.64217 9.15605C2.35966 9.19711 2.12495 9.39499 2.03673 9.6665C1.94851 9.93801 2.02208 10.2361 2.22651 10.4353L6.15001 14.2598L5.2238 19.66C5.17554 19.9414 5.29121 20.2258 5.52216 20.3936C5.75312 20.5614 6.05932 20.5835 6.31201 20.4506L11.1617 17.901L16.0114 20.4506C16.2641 20.5835 16.5703 20.5614 16.8013 20.3936C17.0322 20.2258 17.1479 19.9414 17.0996 19.66L16.1734 14.2598L20.0969 10.4353C20.3014 10.2361 20.3749 9.93801 20.2867 9.6665C20.1985 9.39499 19.9638 9.19711 19.6813 9.15605L14.2591 8.36817L11.8343 3.45488ZM9.23491 9.3856L11.1617 5.48147L13.0885 9.3856C13.1978 9.60696 13.4089 9.76039 13.6532 9.79588L17.9617 10.4219L14.8441 13.4609C14.6673 13.6332 14.5866 13.8814 14.6284 14.1247L15.3643 18.4158L11.5107 16.3898C11.2922 16.275 11.0312 16.275 10.8127 16.3898L6.9591 18.4158L7.69508 14.1247C7.7368 13.8814 7.65614 13.6332 7.47938 13.4609L4.36174 10.4219L8.67021 9.79588C8.91449 9.76039 9.12567 9.60696 9.23491 9.3856ZM21.6514 5.12825C21.9443 5.42111 21.9444 5.89598 21.6515 6.18891L20.1518 7.68891C19.8589 7.98183 19.3841 7.98188 19.0912 7.68901C18.7982 7.39615 18.7982 6.92128 19.091 6.62836L20.5907 5.12836C20.8836 4.83543 21.3585 4.83538 21.6514 5.12825Z"
              fill="currentColor"
            />
          </svg>
