<svg

                width="24"
                height="24"
                viewBox="0 0 24 24"
                fill="none"
                xmlns="http://www.w3.org/2000/svg"
              >
                <path
                  fill-rule="evenodd"
                  clip-rule="evenodd"
                  d="M7.75586 5.50098C7.75586 5.08676 8.09165 4.75098 8.50586 4.75098H18.4985C18.9127 4.75098 19.2485 5.08676 19.2485 5.50098L19.2485 15.4956C19.2485 15.9098 18.9127 16.2456 18.4985 16.2456H8.50586C8.09165 16.2456 7.75586 15.9098 7.75586 15.4956V5.50098ZM8.50586 3.25098C7.26322 3.25098 6.25586 4.25834 6.25586 5.50098V6.26318H5.50195C4.25931 6.26318 3.25195 7.27054 3.25195 8.51318V18.4995C3.25195 19.7422 4.25931 20.7495 5.50195 20.7495H15.4883C16.7309 20.7495 17.7383 19.7421 17.7383 18.4995L17.7383 17.7456H18.4985C19.7411 17.7456 20.7485 16.7382 20.7485 15.4956L20.7485 5.50097C20.7485 4.25833 19.7411 3.25098 18.4985 3.25098H8.50586ZM16.2383 17.7456H8.50586C7.26322 17.7456 6.25586 16.7382 6.25586 15.4956V7.76318H5.50195C5.08774 7.76318 4.75195 8.09897 4.75195 8.51318V18.4995C4.75195 18.9137 5.08774 19.2495 5.50195 19.2495H15.4883C15.9025 19.2495 16.2383 18.9137 16.2383 18.4995L16.2383 17.7456Z"
                  fill="currentColor"
                />
              </svg>
