<svg

                                width="20"
                                height="20"
                                viewBox="0 0 20 20"
                                fill="none"
                                xmlns="http://www.w3.org/2000/svg"
                              >
                                <path
                                  fill-rule="evenodd"
                                  clip-rule="evenodd"
                                  d="M8.0254 6.17845C8.0254 4.90629 9.05669 3.875 10.3289 3.875C11.601 3.875 12.6323 4.90629 12.6323 6.17845C12.6323 7.45061 11.601 8.48191 10.3289 8.48191C9.05669 8.48191 8.0254 7.45061 8.0254 6.17845ZM10.3289 2.375C8.22827 2.375 6.5254 4.07786 6.5254 6.17845C6.5254 8.27904 8.22827 9.98191 10.3289 9.98191C12.4294 9.98191 14.1323 8.27904 14.1323 6.17845C14.1323 4.07786 12.4294 2.375 10.3289 2.375ZM8.92286 11.03C5.7669 11.03 3.2085 13.5884 3.2085 16.7444V17.0333C3.2085 17.4475 3.54428 17.7833 3.9585 17.7833C4.37271 17.7833 4.7085 17.4475 4.7085 17.0333V16.7444C4.7085 14.4169 6.59533 12.53 8.92286 12.53H11.736C14.0635 12.53 15.9504 14.4169 15.9504 16.7444V17.0333C15.9504 17.4475 16.2861 17.7833 16.7004 17.7833C17.1146 17.7833 17.4504 17.4475 17.4504 17.0333V16.7444C17.4504 13.5884 14.8919 11.03 11.736 11.03H8.92286Z"
                                  fill="currentColor"
                                />
                              </svg>
