<svg width="20" height="20" viewBox="0 0 20 20" fill="none" xmlns="http://www.w3.org/2000/svg">
<path d="M15.7493 13.6461L17.6649 12.3961V15.3128L15.7493 14.0628V13.6461Z" fill="#344054"/>
<path d="M10.0432 12.3711C10.0432 11.6807 10.6029 11.1211 11.2932 11.1211H14.4993C15.1896 11.1211 15.7493 11.6807 15.7493 12.3711V15.3378C15.7493 16.0282 15.1896 16.5878 14.4993 16.5878H11.2932C10.6029 16.5878 10.0432 16.0282 10.0432 15.3378V12.3711Z" stroke="#344054" stroke-width="1.5" stroke-linejoin="round"/>
<path d="M15.7493 13.6461L17.6649 12.3961V15.3128L15.7493 14.0628V13.6461Z" stroke="#344054" stroke-width="1.5" stroke-linejoin="round"/>
<path fill-rule="evenodd" clip-rule="evenodd" d="M8.125 18.4587V16.9587H5.875C5.46079 16.9587 5.125 16.6229 5.125 16.2087V8.25094H8.08389C8.09762 8.25094 8.11133 8.25081 8.125 8.25057V8.12533H8.82702C9.70502 7.81822 10.3346 6.98219 10.3339 5.99933L10.3318 3.04199H14.125C14.5392 3.04199 14.875 3.37778 14.875 3.79199V8.12533H16.375V3.79199C16.375 2.54935 15.3676 1.54199 14.125 1.54199H10.2017C9.60469 1.54199 9.03218 1.77924 8.61019 2.2015L4.28351 6.53088C3.86186 6.9528 3.625 7.52488 3.625 8.12137V16.2087C3.625 17.4513 4.63236 18.4587 5.875 18.4587H8.125ZM6.18425 6.75094L8.83254 4.10099L8.83389 6.0004C8.83419 6.41482 8.49831 6.75094 8.08389 6.75094H6.18425Z" fill="#344054"/>
</svg>
