<svg width="20" height="20" viewBox="0 0 20 20" fill="none" xmlns="http://www.w3.org/2000/svg">
<path fill-rule="evenodd" clip-rule="evenodd" d="M14.125 18.4587C15.3676 18.4587 16.375 17.4513 16.375 16.2087V15.8385H16.8333C17.6618 15.8385 18.3333 15.1669 18.3333 14.3385V11.292C18.3333 10.4636 17.6618 9.79199 16.8333 9.79199H9C8.17157 9.79199 7.5 10.4636 7.5 11.292V14.3385C7.5 15.1669 8.17157 15.8385 9 15.8385H14.875V16.2087C14.875 16.6229 14.5392 16.9587 14.125 16.9587H5.875C5.46079 16.9587 5.125 16.6229 5.125 16.2087V8.25094H8.08389C9.32716 8.25094 10.3348 7.2426 10.3339 5.99933L10.3318 3.04199H14.125C14.5392 3.04199 14.875 3.37778 14.875 3.79199V9.78182H16.375V3.79199C16.375 2.54935 15.3676 1.54199 14.125 1.54199H10.2017C9.60469 1.54199 9.03218 1.77924 8.61019 2.2015L4.28351 6.53088C3.86186 6.9528 3.625 7.52488 3.625 8.12137V16.2087C3.625 17.4513 4.63236 18.4587 5.875 18.4587H14.125ZM8.83254 4.10099L6.18425 6.75094H8.08389C8.49831 6.75094 8.83419 6.41482 8.83389 6.0004L8.83254 4.10099ZM17.3365 11.7866C17.3365 11.8101 17.3298 11.8286 17.3164 11.842C17.3029 11.8555 17.2844 11.8622 17.2609 11.8622H15.7594C15.7426 11.8622 15.7342 11.8706 15.7342 11.8874V12.361C15.7342 12.3778 15.7426 12.3862 15.7594 12.3862H16.6915C16.7151 12.3862 16.7335 12.3929 16.747 12.4064C16.7604 12.4198 16.7671 12.4383 16.7671 12.4618V13.1168C16.7671 13.1404 16.7604 13.1588 16.747 13.1723C16.7335 13.1857 16.7151 13.1924 16.6915 13.1924H15.7594C15.7426 13.1924 15.7342 13.2008 15.7342 13.2176V14.5025C15.7342 14.526 15.7275 14.5445 15.714 14.5579C15.7006 14.5714 15.6821 14.5781 15.6586 14.5781H14.8625C14.839 14.5781 14.8205 14.5714 14.8071 14.5579C14.7936 14.5445 14.7869 14.526 14.7869 14.5025V11.1265C14.7869 11.103 14.7936 11.0845 14.8071 11.0711C14.8205 11.0577 14.839 11.0509 14.8625 11.0509H17.2609C17.2844 11.0509 17.3029 11.0577 17.3164 11.0711C17.3298 11.0845 17.3365 11.103 17.3365 11.1265V11.7866ZM11.6933 14.5579C11.7067 14.5714 11.7252 14.5781 11.7487 14.5781H13.0436C13.3157 14.5781 13.5559 14.531 13.7642 14.437C13.9758 14.3429 14.1387 14.2102 14.2529 14.0389C14.3672 13.8676 14.4243 13.6694 14.4243 13.4444V12.1847C14.4243 11.9596 14.3672 11.7614 14.2529 11.5901C14.1387 11.4188 13.9758 11.2861 13.7642 11.192C13.5559 11.098 13.3157 11.0509 13.0436 11.0509H11.7487C11.7252 11.0509 11.7067 11.0577 11.6933 11.0711C11.6798 11.0845 11.6731 11.103 11.6731 11.1265V14.5025C11.6731 14.526 11.6798 14.5445 11.6933 14.5579ZM12.6456 13.7668C12.6288 13.7668 12.6204 13.7584 12.6204 13.7416V11.8874C12.6204 11.8706 12.6288 11.8622 12.6456 11.8622H13.0739C13.1948 11.8622 13.2922 11.9075 13.3661 11.9982C13.44 12.0856 13.477 12.2015 13.477 12.3459V13.2831C13.4736 13.4276 13.435 13.5451 13.3611 13.6358C13.2872 13.7232 13.1931 13.7668 13.0789 13.7668H12.6456ZM10.188 11.0509C10.4265 11.0509 10.6365 11.0997 10.8179 11.1971C10.9992 11.2911 11.1387 11.4272 11.2361 11.6052C11.3368 11.7799 11.3872 11.9814 11.3872 12.2099C11.3872 12.4349 11.3352 12.6331 11.231 12.8044C11.1269 12.9758 10.9808 13.1084 10.7927 13.2025C10.6045 13.2966 10.3879 13.3436 10.1427 13.3436H9.60855C9.59175 13.3436 9.58335 13.352 9.58335 13.3688V14.5025C9.58335 14.526 9.57664 14.5445 9.5632 14.5579C9.54976 14.5714 9.53129 14.5781 9.50777 14.5781H8.71165C8.68814 14.5781 8.66966 14.5714 8.65622 14.5579C8.64279 14.5445 8.63607 14.526 8.63607 14.5025V11.1265C8.63607 11.103 8.64279 11.0845 8.65622 11.0711C8.66966 11.0577 8.68814 11.0509 8.71165 11.0509H10.188ZM10.0318 12.5878C10.1561 12.5878 10.2552 12.5559 10.3291 12.492C10.4064 12.4248 10.445 12.3375 10.445 12.23C10.445 12.1192 10.4064 12.0301 10.3291 11.963C10.2552 11.8958 10.1561 11.8622 10.0318 11.8622H9.60855C9.59175 11.8622 9.58335 11.8706 9.58335 11.8874V12.5626C9.58335 12.5794 9.59175 12.5878 9.60855 12.5878H10.0318Z" fill="#98A2B3"/>
</svg>
