<svg width="20" height="20" viewBox="0 0 20 20" fill="none" xmlns="http://www.w3.org/2000/svg">
<path fill-rule="evenodd" clip-rule="evenodd" d="M8.125 16.9587V18.4587H5.875C4.63236 18.4587 3.625 17.4513 3.625 16.2087V8.12137C3.625 7.52488 3.86186 6.9528 4.28351 6.53088L8.61019 2.2015C9.03218 1.77924 9.60469 1.54199 10.2017 1.54199H14.125C15.3676 1.54199 16.375 2.54935 16.375 3.79199V8.12533H14.875V3.79199C14.875 3.37778 14.5392 3.04199 14.125 3.04199H10.3318L10.3339 5.99933C10.3346 6.98219 9.70502 7.81822 8.82702 8.12533H8.125V8.25057C8.11133 8.25081 8.09762 8.25094 8.08389 8.25094H5.125V16.2087C5.125 16.6229 5.46079 16.9587 5.875 16.9587H8.125ZM8.83254 4.10099L6.18425 6.75094H8.08389C8.49831 6.75094 8.83419 6.41482 8.83389 6.0004L8.83254 4.10099ZM11.8114 9.81165C10.7068 9.81165 9.81137 10.7071 9.81137 11.8116V15.8972C9.81137 16.1982 9.87787 16.4837 9.99698 16.7398C10.1307 17.1788 10.4745 17.5306 10.9157 17.6859C11.1851 17.8211 11.4894 17.8972 11.8114 17.8972H15.8969C16.219 17.8972 16.5233 17.8211 16.7928 17.6858C17.2337 17.5306 17.5773 17.179 17.7111 16.7402C17.8304 16.484 17.8969 16.1984 17.8969 15.8972V11.8116C17.8969 10.7071 17.0015 9.81165 15.8969 9.81165H11.8114ZM16.3969 14.4735V11.8116C16.3969 11.5355 16.1731 11.3116 15.8969 11.3116H11.8114C11.5352 11.3116 11.3114 11.5355 11.3114 11.8116V14.9237L11.8234 14.6628C12.2747 14.4328 12.8161 14.4428 13.2579 14.6893L14.1394 15.181C14.7374 15.5146 15.4938 15.4059 15.966 14.9184L16.3969 14.4735ZM11.944 12.7455C11.944 12.3037 12.3022 11.9455 12.744 11.9455H12.7485C13.1903 11.9455 13.5485 12.3037 13.5485 12.7455C13.5485 13.1873 13.1903 13.5455 12.7485 13.5455H12.744C12.3022 13.5455 11.944 13.1873 11.944 12.7455Z" fill="#98A2B3"/>
</svg>
