<?xml version="1.0" encoding="UTF-8" standalone="no"?>
<svg
   width="341.26297mm"
   height="63.977139mm"
   viewBox="0 0 341.26297 63.977134"
   version="1.1"
   id="svg8"
   sodipodi:docname="logo-teal-nomargin-vector.svg"
   inkscape:version="1.3.2 (091e20e, 2023-11-25)"
   xmlns:inkscape="http://www.inkscape.org/namespaces/inkscape"
   xmlns:sodipodi="http://sodipodi.sourceforge.net/DTD/sodipodi-0.dtd"
   xmlns="http://www.w3.org/2000/svg"
   xmlns:svg="http://www.w3.org/2000/svg"
   xmlns:rdf="http://www.w3.org/1999/02/22-rdf-syntax-ns#"
   xmlns:cc="http://creativecommons.org/ns#"
   xmlns:dc="http://purl.org/dc/elements/1.1/">
  <sodipodi:namedview
     pagecolor="#ffffff"
     bordercolor="#666666"
     borderopacity="1"
     objecttolerance="10"
     gridtolerance="10"
     guidetolerance="10"
     inkscape:pageopacity="0"
     inkscape:pageshadow="2"
     inkscape:window-width="1720"
     inkscape:window-height="1371"
     id="namedview10"
     showgrid="false"
     inkscape:zoom="0.73657628"
     inkscape:cx="448.01877"
     inkscape:cy="-91.640203"
     inkscape:window-x="1720"
     inkscape:window-y="32"
     inkscape:window-maximized="0"
     inkscape:current-layer="g1"
     inkscape:showpageshadow="2"
     inkscape:pagecheckerboard="0"
     inkscape:deskcolor="#d1d1d1"
     inkscape:document-units="mm" />
  <defs
     id="defs2" />
  <metadata
     id="metadata5">
    <rdf:RDF>
      <cc:Work
         rdf:about="">
        <dc:format>image/svg+xml</dc:format>
        <dc:type
           rdf:resource="http://purl.org/dc/dcmitype/StillImage" />
      </cc:Work>
    </rdf:RDF>
  </metadata>
  <g
     id="g2149">
    <g
       id="g2141">
      <g
         id="g1">
        <g
           id="g2106"
           transform="matrix(0.96564264,0,0,0.96251987,-899.3295,194.86874)">
          <circle
             style="fill:#009688;fill-opacity:0.980392;stroke:none;stroke-width:0.141404;stop-color:#000000"
             id="path875-5-9-7-3-2-3-9-9-8-0-0-5-87-7"
             cx="964.56165"
             cy="-169.22266"
             r="33.234192"
             inkscape:export-xdpi="1543.8315"
             inkscape:export-ydpi="1543.8315" />
          <path
             id="rect1249-6-3-4-4-3-6-6-1-2"
             style="fill:#ffffff;fill-opacity:0.980392;stroke:none;stroke-width:0.146895;stop-color:#000000"
             d="m 962.2685,-187.40837 -6.64403,14.80375 -3.03599,6.76393 -6.64456,14.80375 30.59142,-21.56768 h -14.35312 l 20.99715,-14.80375 z" />
        </g>
        <path
           style="font-size:79.7151px;line-height:1.25;font-family:Ubuntu;-inkscape-font-specification:Ubuntu;letter-spacing:0px;word-spacing:0px;fill:#009688;stroke-width:1.99288"
           d="M 89.762163,59.410606 V 4.1680399 H 121.88735 V 9.5089518 H 95.979941 V 28.082571 h 22.957949 v 5.340912 H 95.979941 v 25.987123 z m 51.017587,0.876867 q -4.46405,0 -7.97152,-1.275442 -3.50746,-1.275442 -5.50034,-4.145185 -1.99288,-2.869744 -1.99288,-7.572935 0,-4.543761 2.23203,-7.33379 2.23202,-2.869743 6.13806,-4.145185 3.98576,-1.275442 8.92809,-1.275442 2.23203,0 4.70319,0.398576 2.47117,0.398575 3.10889,0.717436 v -2.391453 q 0,-2.710314 -0.71743,-5.181482 -0.63772,-2.550883 -2.71032,-4.145186 -2.07259,-1.594302 -6.29749,-1.594302 -4.38433,0 -6.69607,0.637721 -2.31174,0.637721 -3.42775,1.036297 l -0.79715,-5.101767 q 1.43487,-0.637721 4.38433,-1.195727 2.94946,-0.558005 6.93522,-0.558005 5.65977,0 8.92809,1.992877 3.34803,1.992878 4.7829,5.500342 1.51459,3.42775 1.51459,7.891796 v 25.907408 q -1.67402,0.398576 -5.97863,1.116012 -4.30462,0.717436 -9.56581,0.717436 z m 0.87686,-5.101767 q 2.79003,0 5.02205,-0.15943 2.23203,-0.239146 3.74661,-0.558006 V 40.597842 q -0.79715,-0.398575 -2.71031,-0.797151 -1.91316,-0.398576 -4.94234,-0.398576 -2.55088,0 -5.18148,0.558006 -2.6306,0.558006 -4.46404,2.232023 -1.75374,1.674017 -1.75374,5.022052 0,4.464045 2.79003,6.217778 2.79003,1.753732 7.49322,1.753732 z m 36.4298,5.181482 q -5.34092,0 -8.37009,-0.956582 -2.94946,-0.876866 -3.98575,-1.355156 l 1.43487,-5.261197 q 0.87686,0.31886 3.58718,1.355157 2.71031,1.036296 7.33379,1.036296 4.38433,0 7.09464,-1.355157 2.71031,-1.355157 2.71031,-4.703191 0,-2.152308 -0.95658,-3.427749 -0.95658,-1.355157 -3.10889,-2.471169 -2.07259,-1.116011 -5.73948,-2.550883 -3.10889,-1.275442 -5.73949,-2.710313 -2.6306,-1.434872 -4.30462,-3.666895 -1.5943,-2.232023 -1.5943,-5.739488 0,-3.427749 1.75373,-5.978632 1.75374,-2.550884 4.94234,-3.985755 3.26832,-1.434872 7.73237,-1.434872 4.14518,0 7.01492,0.717436 2.86975,0.717436 4.06547,1.275441 l -1.35515,5.181482 q -1.0363,-0.558006 -3.34804,-1.275442 -2.31173,-0.797151 -6.53663,-0.797151 -3.34804,0 -5.81921,1.434872 -2.47117,1.355157 -2.47117,4.384331 0,2.152308 1.0363,3.507464 1.0363,1.275442 3.10889,2.311738 2.07259,1.036297 5.10177,2.232023 3.42775,1.355157 6.13806,2.869744 2.79003,1.434872 4.46405,3.74661 1.67401,2.311738 1.67401,6.138063 0,3.74661 -1.91316,6.377208 -1.91316,2.550883 -5.50034,3.826325 -3.50747,1.275442 -8.4498,1.275442 z m 39.21967,-0.07972 q -5.2612,0 -8.29037,-1.833448 -3.02917,-1.833447 -4.30461,-5.500342 -1.19573,-3.666895 -1.19573,-9.167237 V 6.1609175 L 209.494,5.1246211 V 18.118183 h 16.18217 v 5.022051 H 209.494 v 21.124503 q 0,4.38433 0.95658,6.696068 1.0363,2.311738 2.86975,3.188605 1.91316,0.797151 4.46404,0.797151 3.02918,0 5.02205,-0.717436 2.0726,-0.717436 3.26832,-1.275442 l 1.27544,4.862621 q -1.19572,0.717436 -3.98575,1.594302 -2.71031,0.876867 -6.05835,0.876867 z m 11.95723,-0.876867 q 4.30462,-11.55869 7.8918,-21.044787 3.58718,-9.486097 7.01493,-17.776468 3.50746,-8.370086 7.4135,-16.4213111 h 5.58006 q 2.86974,6.0583481 5.50034,12.2761261 2.71032,6.138063 5.34091,12.754416 2.6306,6.616354 5.42063,14.109574 2.86975,7.413504 6.05835,16.10245 h -6.77578 q -1.43488,-3.985755 -2.79003,-7.572934 -1.35516,-3.666895 -2.55089,-7.17436 h -26.30598 q -1.27544,3.507465 -2.6306,7.17436 -1.35516,3.587179 -2.71031,7.572934 z M 242.8946,39.402115 h 22.63909 q -1.51459,-3.985755 -2.94946,-7.732365 -1.43487,-3.746609 -2.86975,-7.254074 -1.35515,-3.507464 -2.79002,-6.775784 -1.35516,-3.348034 -2.79003,-6.536638 -1.35516,3.188604 -2.79003,6.536638 -1.35516,3.26832 -2.79003,6.775784 -1.35516,3.507465 -2.79003,7.254074 -1.43487,3.74661 -2.86974,7.732365 z m 44.481,20.008491 V 5.2043362 q 3.02917,-0.797151 6.93521,-1.1160114 3.98576,-0.3985755 7.33379,-0.3985755 11.71812,0 17.53732,4.5437609 5.89892,4.4640458 5.89892,12.7544168 0,6.297493 -2.94946,10.123818 -2.86974,3.826325 -8.37008,5.580057 -5.42063,1.674017 -13.07328,1.674017 h -7.09465 v 21.044787 z m 6.21777,-26.385699 h 6.53664 q 5.65978,0 9.80496,-0.956581 4.14519,-1.036296 6.37721,-3.666895 2.31174,-2.630598 2.31174,-7.493219 0,-4.703192 -2.39146,-7.254075 -2.39145,-2.550883 -6.21777,-3.587179 -3.82633,-1.0362968 -8.13094,-1.0362968 -2.79003,0 -4.86263,0.2391453 -1.99287,0.1594302 -3.42775,0.3188604 z M 335.0452,59.410606 V 4.1680399 h 6.21778 V 59.410606 Z"
           id="text979-3"
           aria-label="FastAPI" />
      </g>
    </g>
  </g>
  <rect
     y="-49.422424"
     x="-51.908718"
     height="162.82199"
     width="451.52316"
     id="rect824"
     style="opacity:0.98;fill:none;fill-opacity:1;stroke-width:0.311037" />
</svg>
