<svg width="562" height="156" viewBox="0 0 562 156" fill="none" xmlns="http://www.w3.org/2000/svg">
<rect x="0.161133" y="13.4297" width="32.6255" height="71" rx="6.26271" fill="#7592FF"/>
<rect x="0.161133" y="13.4297" width="32.6255" height="71" rx="6.26271" stroke="#7592FF"/>
<rect x="88.2891" y="80.1504" width="32.6255" height="63.5801" rx="6.26271" fill="#7592FF"/>
<rect x="88.2891" y="80.1504" width="32.6255" height="63.5801" rx="6.26271" stroke="#7592FF"/>
<rect x="15.5254" y="33.4668" width="32.6255" height="105.389" rx="6.26271" transform="rotate(-90 15.5254 33.4668)" fill="#7592FF"/>
<rect x="15.5254" y="33.4668" width="32.6255" height="105.389" rx="6.26271" transform="rotate(-90 15.5254 33.4668)" stroke="#7592FF"/>
<rect x="0.161133" y="155.16" width="30" height="107.028" rx="6.26271" transform="rotate(-90 0.161133 155.16)" fill="#7592FF"/>
<rect x="0.161133" y="155.16" width="30" height="107.028" rx="6.26271" transform="rotate(-90 0.161133 155.16)" stroke="#7592FF"/>
<rect x="15.5254" y="96.3398" width="32.6255" height="91.6638" rx="6.26271" transform="rotate(-90 15.5254 96.3398)" fill="#7592FF"/>
<rect x="15.5254" y="96.3398" width="32.6255" height="91.6638" rx="6.26271" transform="rotate(-90 15.5254 96.3398)" stroke="#7592FF"/>
<rect x="162.915" y="12.8496" width="166.462" height="130.311" rx="28" stroke="#7592FF" stroke-width="24"/>
<rect x="213.52" y="42.0287" width="22.1453" height="20.7141" rx="2.63433" fill="#7592FF" stroke="#7592FF" stroke-width="0.752667"/>
<rect x="257.168" y="42.0287" width="22.1453" height="20.7141" rx="2.63433" fill="#7592FF" stroke="#7592FF" stroke-width="0.752667"/>
<rect x="268.618" y="98.558" width="22.1453" height="20.7141" rx="2.63433" fill="#7592FF" stroke="#7592FF" stroke-width="0.752667"/>
<rect x="202.071" y="98.558" width="22.1453" height="20.7141" rx="2.63433" fill="#7592FF" stroke="#7592FF" stroke-width="0.752667"/>
<rect x="217.813" y="83.1732" width="57.5655" height="20.7141" rx="2.63433" fill="#7592FF" stroke="#7592FF" stroke-width="0.752667"/>
<rect x="383.377" y="12.8496" width="166.462" height="130.311" rx="28" stroke="#7592FF" stroke-width="24"/>
<rect x="433.982" y="42.0287" width="22.1453" height="20.7141" rx="2.63433" fill="#7592FF" stroke="#7592FF" stroke-width="0.752667"/>
<rect x="477.63" y="42.0287" width="22.1453" height="20.7141" rx="2.63433" fill="#7592FF" stroke="#7592FF" stroke-width="0.752667"/>
<rect x="489.079" y="98.558" width="22.1453" height="20.7141" rx="2.63433" fill="#7592FF" stroke="#7592FF" stroke-width="0.752667"/>
<rect x="422.533" y="98.558" width="22.1453" height="20.7141" rx="2.63433" fill="#7592FF" stroke="#7592FF" stroke-width="0.752667"/>
<rect x="438.275" y="83.1732" width="57.5655" height="20.7141" rx="2.63433" fill="#7592FF" stroke="#7592FF" stroke-width="0.752667"/>
</svg>
