<svg width="204" height="212" viewBox="0 0 204 212" fill="none" xmlns="http://www.w3.org/2000/svg">
<path fill-rule="evenodd" clip-rule="evenodd" d="M12.3977 187.784C15.3444 192.888 21.8722 194.635 26.976 191.689C34.088 187.583 42.9808 192.714 42.9808 200.926C42.9808 206.818 47.7571 211.594 53.6489 211.594H75.4488C81.342 211.594 86.1194 206.816 86.1194 200.923C86.1194 192.71 95.0106 187.575 102.124 191.682C107.227 194.628 113.752 192.88 116.698 187.776L127.599 168.895C130.545 163.793 128.795 157.268 123.693 154.323C116.584 150.218 116.581 139.956 123.689 135.851C128.789 132.907 130.537 126.385 127.592 121.285L116.687 102.397C113.742 97.2959 107.219 95.5481 102.118 98.4933C95.0074 102.599 86.1194 97.464 86.1194 89.2536C86.1194 83.3616 81.343 78.5835 75.451 78.5835L53.6467 78.5835C47.7561 78.5835 42.9808 83.3588 42.9808 89.2494C42.9808 97.4601 34.0914 102.591 26.9808 98.4858C21.8788 95.5401 15.3543 97.2878 12.4087 102.39L1.50766 121.271C-1.43865 126.374 0.309822 132.899 5.41298 135.846C12.526 139.952 12.5224 150.221 5.40935 154.328C0.304371 157.275 -1.44682 163.804 1.50054 168.909L12.3977 187.784ZM64.5483 168.576C77.5111 168.576 88.0195 158.068 88.0195 145.105C88.0195 132.143 77.5111 121.634 64.5483 121.634C51.5856 121.634 41.0772 132.143 41.0772 145.105C41.0772 158.068 51.5856 168.576 64.5483 168.576Z" fill="#465FFF"/>
<path fill-rule="evenodd" clip-rule="evenodd" d="M87.9495 54.4637C87.7791 57.7006 90.266 60.4628 93.5029 60.6331C98.0135 60.8704 100.577 65.9017 98.1164 69.6892C96.351 72.4066 97.1226 76.0407 99.8399 77.8062L109.894 84.3385C112.612 86.1044 116.247 85.3322 118.013 82.6142C120.474 78.8262 126.114 79.1223 128.164 83.1478C129.634 86.0357 133.168 87.1847 136.056 85.7139L146.741 80.2723C149.628 78.8019 150.776 75.2681 149.306 72.3808C147.257 68.3577 150.331 63.6234 154.839 63.8606C158.074 64.0308 160.834 61.5467 161.004 58.3122L161.634 46.3333C161.805 43.0981 159.32 40.3373 156.085 40.1671C151.575 39.9298 149.015 34.8984 151.475 31.1117C153.24 28.3943 152.469 24.7594 149.752 22.9938L139.696 16.4602C136.979 14.6951 133.345 15.4665 131.58 18.1833C129.12 21.9701 123.483 21.6729 121.433 17.6488C119.963 14.7615 116.43 13.6124 113.543 15.0828L102.857 20.5244C99.9694 21.9952 98.8205 25.5286 100.291 28.4167C102.341 32.4421 99.2625 37.1771 94.7514 36.9397C91.5138 36.7693 88.7497 39.2558 88.5794 42.4934L87.9495 54.4637ZM117.757 61.2321C123.736 65.1163 131.731 63.4187 135.615 57.4402C139.499 51.4617 137.802 43.4663 131.823 39.582C125.845 35.6978 117.849 37.3955 113.965 43.3739C110.081 49.3524 111.779 57.3478 117.757 61.2321Z" fill="#465FFF"/>
<path fill-rule="evenodd" clip-rule="evenodd" d="M157.997 100.165C158.662 102.06 160.738 103.056 162.633 102.391C165.273 101.463 167.929 103.742 167.412 106.492C167.041 108.465 168.34 110.366 170.313 110.736L177.614 112.109C179.587 112.48 181.488 111.18 181.859 109.207C182.376 106.456 185.677 105.296 187.801 107.119C189.324 108.427 191.62 108.252 192.928 106.729L197.767 101.092C199.075 99.5684 198.899 97.273 197.376 95.9654C195.254 94.1433 195.899 90.7061 198.538 89.7791C200.431 89.114 201.427 87.0399 200.762 85.1465L198.299 78.1344C197.634 76.2406 195.559 75.2446 193.665 75.9098C191.025 76.8371 188.372 74.558 188.889 71.8083C189.26 69.8351 187.961 67.9342 185.988 67.5633L178.685 66.1906C176.713 65.8198 174.813 67.1185 174.442 69.0913C173.925 71.841 170.625 72.9998 168.502 71.1773C166.979 69.8696 164.684 70.0442 163.376 71.5675L158.537 77.2045C157.229 78.7281 157.403 81.0236 158.927 82.3315C161.051 84.1547 160.403 87.5935 157.762 88.5211C155.867 89.1868 154.87 91.2631 155.535 93.1583L157.997 100.165ZM176.671 97.0158C181.012 97.8318 185.193 94.974 186.009 90.6328C186.825 86.2915 183.968 82.1107 179.626 81.2947C175.285 80.4787 171.104 83.3364 170.288 87.6777C169.472 92.0189 172.33 96.1997 176.671 97.0158Z" fill="#465FFF"/>
</svg>
