<svg width="40" height="40" viewBox="0 0 40 40" fill="none" xmlns="http://www.w3.org/2000/svg">
<g filter="url(#filter0_d_2306_11136)">
<path d="M20.0024 15.5639L15.6763 7.9292C15.8199 7.78296 15.9852 7.68703 16.1504 7.62256C14.8747 8.04242 14.2893 9.475 14.2893 9.475L6.38619 23.4187C6.27499 23.8558 6.2441 24.2505 6.258 24.5981H14.884L20.0024 15.5639Z" fill="#34A853"/>
<path d="M20.0024 15.5639L25.1209 24.5981H33.7468C33.7607 24.2505 33.7298 23.8558 33.6186 23.4187L25.7155 9.475C25.7155 9.475 25.1286 8.04242 23.8544 7.62256C24.0181 7.68703 24.1849 7.78296 24.3285 7.9292L20.0024 15.5639Z" fill="#FBBC05"/>
<path d="M20.0024 15.5638L24.3285 7.92914C24.1848 7.7829 24.018 7.68697 23.8543 7.6225C23.6659 7.56117 23.4636 7.52029 23.2443 7.50928H23.0157H16.9891H16.7605C16.5427 7.51871 16.3389 7.5596 16.1504 7.6225C15.9867 7.68697 15.8199 7.7829 15.6763 7.92914L20.0024 15.5638Z" fill="#188038"/>
<path d="M14.8858 24.5981L10.6091 32.1463C10.6091 32.1463 10.467 32.0771 10.2739 31.934C10.8809 32.4011 11.4709 32.5001 11.4709 32.5001H28.2672C29.1939 32.5001 29.387 32.1463 29.387 32.1463C29.39 32.1447 29.3916 32.1432 29.3947 32.1416L25.1211 24.5981H14.8858Z" fill="#4285F4"/>
<path d="M14.8857 24.5981H6.25977C6.30301 25.6234 6.74782 26.2226 6.74782 26.2226L7.07217 26.7855C7.09533 26.8186 7.10923 26.8374 7.10923 26.8374L7.81506 28.0766L9.3997 30.8348C9.44604 30.9465 9.5001 31.0487 9.55725 31.1462C9.57887 31.1792 9.59894 31.2154 9.62211 31.2468C9.62829 31.2562 9.63447 31.2657 9.64064 31.2751C9.83679 31.5519 10.0561 31.7658 10.2754 31.934C10.4685 32.0787 10.6106 32.1463 10.6106 32.1463L14.8857 24.5981Z" fill="#1967D2"/>
<path d="M25.1211 24.5981H33.747C33.7038 25.6234 33.259 26.2226 33.259 26.2226L32.9346 26.7855C32.9115 26.8186 32.8976 26.8374 32.8976 26.8374L32.1917 28.0766L30.6071 30.8348C30.5608 30.9465 30.5067 31.0487 30.4496 31.1462C30.4279 31.1792 30.4079 31.2154 30.3847 31.2468C30.3785 31.2562 30.3723 31.2657 30.3662 31.2751C30.17 31.5519 29.9507 31.7658 29.7314 31.934C29.5383 32.0787 29.3962 32.1463 29.3962 32.1463L25.1211 24.5981Z" fill="#EA4335"/>
</g>
<defs>
<filter id="filter0_d_2306_11136" x="-2" y="-1" width="44" height="44" filterUnits="userSpaceOnUse" color-interpolation-filters="sRGB">
<feFlood flood-opacity="0" result="BackgroundImageFix"/>
<feColorMatrix in="SourceAlpha" type="matrix" values="0 0 0 0 0 0 0 0 0 0 0 0 0 0 0 0 0 0 127 0" result="hardAlpha"/>
<feOffset dy="1"/>
<feGaussianBlur stdDeviation="1"/>
<feColorMatrix type="matrix" values="0 0 0 0 0.0627451 0 0 0 0 0.0941176 0 0 0 0 0.156863 0 0 0 0.05 0"/>
<feBlend mode="normal" in2="BackgroundImageFix" result="effect1_dropShadow_2306_11136"/>
<feBlend mode="normal" in="SourceGraphic" in2="effect1_dropShadow_2306_11136" result="shape"/>
</filter>
</defs>
</svg>
