<svg width="40" height="40" viewBox="0 0 40 40" fill="none" xmlns="http://www.w3.org/2000/svg">
<path d="M11.875 3.75C10.7578 3.75 9.84375 4.66406 9.84375 5.78125V34.2188C9.84375 35.3359 10.7578 36.25 11.875 36.25H32.1875C33.3047 36.25 34.2188 35.3359 34.2188 34.2188V11.875L26.0938 3.75H11.875Z" fill="#E2E5E7"/>
<path d="M28.125 11.875H34.2188L26.0938 3.75V9.84375C26.0938 10.9609 27.0078 11.875 28.125 11.875Z" fill="#B0B7BD"/>
<path d="M34.2188 17.9688L28.125 11.875H34.2188V17.9688Z" fill="#CAD1D8"/>
<path d="M30.1562 30.1562C30.1562 30.7148 29.6992 31.1719 29.1406 31.1719H6.79688C6.23828 31.1719 5.78125 30.7148 5.78125 30.1562V20C5.78125 19.4414 6.23828 18.9844 6.79688 18.9844H29.1406C29.6992 18.9844 30.1562 19.4414 30.1562 20V30.1562Z" fill="#F15642"/>
<path d="M10.2085 22.9932C10.2085 22.7251 10.4197 22.4326 10.76 22.4326H12.6358C13.6921 22.4326 14.6427 23.1395 14.6427 24.4943C14.6427 25.7781 13.6921 26.4931 12.6358 26.4931H11.28V27.5656C11.28 27.9231 11.0525 28.1252 10.76 28.1252C10.4919 28.1252 10.2085 27.9231 10.2085 27.5656V22.9932ZM11.28 23.4554V25.4785H12.6358C13.1802 25.4785 13.6108 24.9981 13.6108 24.4943C13.6108 23.9266 13.1802 23.4554 12.6358 23.4554H11.28Z" fill="white"/>
<path d="M16.2335 28.1253C15.9654 28.1253 15.6729 27.9791 15.6729 27.6226V23.0096C15.6729 22.7181 15.9654 22.5059 16.2335 22.5059H18.0931C21.8042 22.5059 21.7229 28.1253 18.1662 28.1253H16.2335ZM16.7454 23.4971V27.1351H18.0931C20.2858 27.1351 20.3833 23.4971 18.0931 23.4971H16.7454Z" fill="white"/>
<path d="M23.0389 23.5621V24.853H25.1098C25.4023 24.853 25.6948 25.1455 25.6948 25.4289C25.6948 25.697 25.4023 25.9164 25.1098 25.9164H23.0389V27.6216C23.0389 27.906 22.8368 28.1243 22.5524 28.1243C22.1949 28.1243 21.9766 27.906 21.9766 27.6216V23.0086C21.9766 22.7171 22.1959 22.5049 22.5524 22.5049H25.4033C25.7608 22.5049 25.972 22.7171 25.972 23.0086C25.972 23.2686 25.7608 23.5611 25.4033 23.5611H23.0389V23.5621Z" fill="white"/>
<path d="M29.1406 31.1719H9.84375V32.1875H29.1406C29.6992 32.1875 30.1562 31.7305 30.1562 31.1719V30.1562C30.1562 30.7148 29.6992 31.1719 29.1406 31.1719Z" fill="#CAD1D8"/>
</svg>
